<svg xmlns="http://www.w3.org/2000/svg" viewBox="0 0 1366 768"><title>ysdn3006-p1-visualcomp-webflow [Recovered]</title><g id="Stats"><g id="Background-2" data-name="Background"><rect width="1366" height="768" style="fill:#1e1e1e"/></g><path d="M559.41,558.91c2.33-2.32,3.09-3.65-.85-4.92a85.44,85.44,0,0,1-9.45-4.22c-3-1.39-3-2.83-.61-5.2,4-3.89,8.82-3.13,13.61-3.45,5.06-.33,10.51,2.8,14.92.17,4.25-2.54,7.38-7,10.9-10.71,4.65-4.92,10.14-9.1,14-14.7a148.8,148.8,0,0,1,13-16.08c10.79-11.78,23.12-21.73,36-31.13,10.21-7.46,21-12,33.94-10.29a169.31,169.31,0,0,1,33.37,8.2c4.56,1.6,9.26,2.95,13.37,5.54,13.59,8.54,25,19.58,35.23,31.79,4,4.74,7.87,9.71,10.39,15.43a168.49,168.49,0,0,1,11.7,41,42.57,42.57,0,0,1-4.75,28.46c-2.86,5.13-7.06,9.19-10.21,14-8.66,13.35-19.92,24.25-31.68,34.82-4.77,4.29-10.59,7-15.18,11.34-6.54,6.17-12.7,12.73-19.16,19-2.09,2-2.94,4-2.32,7,1.17,5.45.84,11,.92,16.54.05,3.72-2.13,6.21-4.31,8.67-1.5,1.69-3,1-3.9-.83-1.51-3.1-3-6.22-4.37-9.39-2.05-4.71-2-4.75-5.78-1q-42.67,42.71-85.34,85.43a28.77,28.77,0,0,0-3.13,3.32c-9.83,13.68-19.84,27.23-31.17,39.75-8,8.82-16.11,17.57-26,24.27-12.58,8.53-25.8,16-39.11,23.39a17.07,17.07,0,0,1-13.54,1.59,124,124,0,0,1-17.3-5.76c-4.54-2-9-4.35-13.64-6-25.58-8.9-45.51-24.45-58.55-48.51-4-7.34-6.19-15.38-9.81-22.82A145.25,145.25,0,0,1,380.52,756a13.17,13.17,0,0,1,1.14-10c3.35-6,6.9-12,10-18.12C405,701.73,425.17,681.79,448,664.14c11.89-9.19,24.35-17.65,34.84-28.62,11.37-11.9,23.21-23.34,34.85-35Q538.55,579.7,559.41,558.91Zm182.22,40c15.55-22.35,26.42-46.83,33.76-73,.93-3.32.65-5.93-1.35-8.48A244.36,244.36,0,0,0,741,482.73c-3.56-3.05-6.8-6.47-10.73-9.1a9.55,9.55,0,0,0-8.48-1.54c-32.84,8.67-61.9,24.74-89,44.74-5.66,4.17-11.62,7.94-17.43,11.92-.87.59-2.21,1.06-1.89,2.38.26,1.06,1.58,1,2.48,1.18,30.28,7.34,53.66,25.08,73.37,48.47a123.14,123.14,0,0,1,26.33,52.43c.12.52.35,1,.84,2.45C725.09,623,733.29,610.92,741.63,598.94ZM631.31,691.45c2.5-2.47,2.77-4.44,1.21-7.54q-23.07-45.76-68.8-68.78c-3.12-1.57-5.1-1.21-7.55,1.27-19.59,19.71-39.14,39.47-59.06,58.85-11.69,11.38-23.21,22.92-34.92,34.27-2.59,2.51-3,4.08-.27,7,13.73,14.78,27,30,41.67,43.87,9.45,8.9,19.17,17.51,28.68,26.34,2.14,2,3.22.78,4.72-.72q23.71-23.82,47.5-47.54l-.17-.16C600,722.68,615.56,707,631.31,691.45ZM537.61,806a4.78,4.78,0,0,0,1.78-2.73c.26-2.44,1.44-5.58-.65-7-1.65-1.15-3.54,1.58-5,2.85-10.11,9-20.18,18.06-30,27.32-10.22,9.59-21.32,13.16-34.8,7.06-26.88-12.16-46-31.69-56.48-59.27-4.15-10.9-.06-20.35,7.25-28.59,10-11.26,20.13-22.39,30.17-33.61.78-.87,2.38-1.64,1.78-3s-2.39-1.09-3.73-1.13a8.26,8.26,0,0,0-6.41,2.28q-24.4,23.37-48.95,46.57a8.75,8.75,0,0,0-3,8c2.23,20.72,9.42,39.4,22.56,55.69,18.07,22.4,41.93,34,70.1,37.58,3.74.48,6.69-.25,9.16-3.3a81.19,81.19,0,0,1,6.11-6.2C510.94,834.43,523.74,819.72,537.61,806ZM419.79,748.57c-7.25,8.29-9.11,17.63-4.53,28.07,11.59,26.42,30.59,45.25,57.25,56.25,10.4,4.29,19.55,1.27,27.56-5.8,11.59-10.22,22.94-20.72,34.48-31,2.29-2.05,2-3.4-.16-5.27-16.5-14.27-32.83-28.76-47.76-44.68-10.1-10.76-20.49-21.28-29.73-32.82-2.69-3.35-4.33-1.38-7,1.76C440.43,725.56,430,736.93,419.79,748.57ZM618.68,534.8c-5.72-1.68-9.41-.08-13.35,3.38-8.9,7.82-15.79,17.36-23,26.65-6.74,8.74-13.15,17.74-19.89,26.49-1.72,2.24-1.34,3,1,4.13a182.08,182.08,0,0,1,54.64,39.07,176.77,176.77,0,0,1,33.45,48.57c1.63,3.53,2.8,3.8,5.78,1.4,15.81-12.7,32.84-23.86,47.67-37.79,2.8-2.62,5.08-5.81,7.57-8.76a5.33,5.33,0,0,0,1-5.06,122.37,122.37,0,0,0-23.45-48,149.85,149.85,0,0,0-12.92-14A129.18,129.18,0,0,0,618.68,534.8Zm-56.2,62.13c-2.42-1.15-3.93-1.12-5.51,1.19a58.14,58.14,0,0,1-5.25,6.38c-1.9,2.08-.94,2.92,1.18,3.78a167.46,167.46,0,0,1,36.67,20.66c18.24,13.48,32,30.6,42.62,50.47a112.57,112.57,0,0,1,7.2,15.37c.9,2.56,2.09,3.08,4,.93a12.71,12.71,0,0,1,1.53-1.4c8.33-6.81,8.18-4.44,2.89-14.89a178.64,178.64,0,0,0-33.49-46A184.59,184.59,0,0,0,562.48,596.93ZM433.7,678.33c-11.58,11.59-24.33,22.13-32.28,36.93-3.12,5.83-6.87,11.32-10.12,17.08-4.47,7.92-7.31,16.36-7.44,25.56,0,1.05-.49,2.48.72,3s1.88-.91,2.59-1.65c11.36-11.88,23.74-22.7,35.72-33.94,4.94-4.64,9-9.35,11.27-15.83,2.22-6.25,6.4-11.55,10.32-16.89,2.9-4,2.93-4-1.72-4.76l-1.22-.19c-7.3-1.37-7.36-1.48-5.62-10.68A13.21,13.21,0,0,0,433.7,678.33Zm126.07,126c-.56-3.57-1.41-3.76-4.2-1.65-7.27,5.52-14.88,10.51-23.67,13.41-3.89,1.28-6.13,4.66-8.66,7.49-11,12.26-22.11,24.31-33.78,35.89-1,1-2.43,1.83-2.87,3.7a23.68,23.68,0,0,0,9.78-.08,62.7,62.7,0,0,0,21.19-8c16.88-9.82,33.24-20.29,46.15-35.29,1.17-1.35,2.43-2.64,3.59-4s2.25-2.8,3.75-4.68C561.6,813.92,561.25,813.8,559.77,804.35ZM670.22,467.43c-5.41,1.67-10.65,4.05-16.15,5.19-8.7,1.8-15.2,7-21.45,12.62-9.55,8.6-18.89,17.53-26.46,27.91A154.5,154.5,0,0,1,592.36,529c-1.1,1.16.32,8.91,1.76,9.55,1,.46,1.82-.43,2.62-.86,3.39-1.84,6.72-3.8,10.1-5.66a5.94,5.94,0,0,0,2.69-2.48c4.86-9.93,12.61-17.31,21.08-24.07,12.28-9.8,23.9-20.41,36.59-29.7,4.42-3.24,9-6.19,14.6-10A33.05,33.05,0,0,0,670.22,467.43Zm95.25,121.25c-10,12-19.75,24.1-29.78,36A49.82,49.82,0,0,1,721.49,636c-3.67,2-6.46,4.61-7.92,8.59a19.05,19.05,0,0,1-1.57,2.91c-3.41,5.76-3.36,5.64,2.64,8.51,1.67.8,2.54.44,3.49-.74,6.22-7.79,15.26-12.18,22.49-18.72,10.64-9.62,21.28-19.32,29.37-31.31,5.19-7.67,6-17.12,9.46-25.51a27.39,27.39,0,0,0,2-12.6C776.15,574.39,771.19,581.81,765.47,588.68Zm-23.78,25.89q12.46-15.2,24.91-30.4a139.55,139.55,0,0,0,13.48-19.8,8,8,0,0,0,1.06-5.16c-1.32-9.37-5.2-18.32-4.78-28.3-10.56,39.12-33.85,71-56.53,103.34C729.18,630,735.41,622.23,741.69,614.57ZM718.17,471.06c-10.49.76-20.08-3.2-30.08-4.65a7,7,0,0,0-4.73,1A211.23,211.23,0,0,0,652,490.31c-8,6.92-16.29,13.61-24.51,20.34a56.46,56.46,0,0,0-14.29,16.94C646.11,504.74,678.39,481.15,718.17,471.06Zm-169,322.58c22.57-22.58,44.89-45.43,67.8-67.66,14-13.55,29.3-25.58,44.77-37.42,13.48-10.31,26.68-21,40-31.47,5.49-4.32,8.56-10.3,11.89-16.87-14,16.62-32,27.49-48.24,40.4-10.38,8.23-20.84,16.34-30.63,25.3-15.28,14-30.77,27.72-46.08,41.65-7.66,7-15.12,14.16-22.67,21.26-6.94,6.53-13.93,13-20.8,19.61-5,4.82-5,4.9-3.13,12.63C545.27,799.28,546.8,796,549.2,793.64ZM460,701.11c7.34-9,15.93-16.86,23.94-25.26,16.5-17.29,32.37-35.15,48.59-52.69a661.17,661.17,0,0,0,47.57-58.38c7.5-10.24,15-20.55,24.5-29.21-4.73,2.82-9.92,4.71-13.51,9.34-13.17,17-26.63,33.84-39.82,50.85-27.45,35.4-60.15,65.84-91.74,97.33-2.15,2.14-4.63,3.94-6.86,6s-4.1,4.07-6.26,6.23C452.73,708.25,456.25,705.75,460,701.11Zm80.26,84.18c-.78.78-1.57,1.56-2.32,2.37s-1.56,1.78-.56,2.88c1.17,1.27,2.25.49,3.22-.39,4.1-3.71,8.39-7.23,12.25-11.17,15-15.33,31.14-29.43,46.8-44.05,12.32-11.49,25.11-22.46,37.73-33.63,1.17-1,1.74-2.14,1.1-3.63-1-2.25-1.17-5-3.28-6.49-1-.69-2,1.13-2.82,2q-23.37,23.29-46.67,46.64l0,0Zm14.41-170c2.34-2.29,2.62-3.45-.82-4.73-5.74-2.15-5.54-2.17-9.77,2.65-7.56,8.61-15.19,17.17-23,25.54-19.71,21.1-38.89,42.7-59.31,63.13a67.46,67.46,0,0,0-4.74,5.76c-.54.68-.86,1.49-.12,2.22s1.55.43,2.23-.12a26.31,26.31,0,0,0,2.14-2q17-17,34.07-34l34-34,.37.37C538.06,631.84,546.31,623.47,554.71,615.26Zm14.38,172.21c14.85-11.94,28.81-24.9,43.17-37.39,2.6-2.27,4.91-4.87,7.39-7.27,1.73-1.69,1.23-2.53-1-2.84a1.3,1.3,0,0,1-.4-.09c-6.56-3.36-11.1-1.11-16,4.13-11.09,11.94-23,23.12-34.42,34.75-7.84,8-15.45,16.19-23.16,24.3a8.51,8.51,0,0,0-2.37,4C552.43,801.51,560.61,794.28,569.09,787.47ZM446.2,701.55q27.1-26.53,54.19-53.1c1.18-1.16,2.23-2.47,3.5-3.53,5.27-4.42,6.68-9.57,3.77-16-.92-2-1.36-2.49-2.94-.78-6.73,7.31-13.64,14.48-20.22,21.93q-13,14.74-25.59,29.87c-6.62,7.9-13.19,15.87-18.54,25.54A13.64,13.64,0,0,0,446.2,701.55Zm134.1,97.54a9.79,9.79,0,0,1-3.62,2.71c-.68.27-1.42.49-1.83-.22a1.85,1.85,0,0,1,.17-1.52,16.36,16.36,0,0,1,1.92-2.68c3.3-3.71,6.61-7.41,10-11.06,1.37-1.47,2.55-3.41,5.12-2.79.77.18,1.28-.42,1.68-1,9.17-12.95,21.51-22.92,32.3-34.35,3.31-3.51,6.84-6.83,10.2-10.3.68-.7,2.19-1.36,1.22-2.63a3.11,3.11,0,0,0-3.43-.86,5.48,5.48,0,0,0-2,1.39c-10.5,10.59-21.78,20.34-32.77,30.39-11.2,10.24-22.37,20.54-34.61,29.5-4.16,3-3.7,6.17-2.88,10,1.27,5.95,1.79,6.1,7.36,4,7.65-2.89,11.44-9.66,16.22-15.48.78-1,1.43-2,2.14-3l-.17-.24C585,793.67,582.65,796.4,580.3,799.09ZM442.68,670.76c-3.57,3-4.76,7.32-6,11.59a2.16,2.16,0,0,0,.27,1.56c1.58,2.5,11.43,3.15,13.28.82,19-24,39.7-46.37,60.94-68.32a22.58,22.58,0,0,0,1.61-1.89,3,3,0,0,0-.34-4.15c-1.36-1.25-2.15.52-2.91,1.27q-12,11.79-23.83,23.7a238.27,238.27,0,0,1-19.64,17.81c-.43.34-1,.68-1.17,1.14-2.89,8.59-11.25,12-17,17.79-.57.57-1.36,1.27-2.1.39s-.06-1.63.39-2.28a29.51,29.51,0,0,1,6.78-6.65,15.88,15.88,0,0,0,4.63-4.57C452.63,662.89,447.56,666.71,442.68,670.76ZM575.54,559.08c-3.36,2.76-6.16,4.82-8.68,7.17-14.79,13.87-29.56,27.78-43.64,42.39-4.83,5-2.51,11.07-2.63,17.68C530.5,617.63,570.07,569.21,575.54,559.08Zm45.89,167.6c6.72.58,12.46,2.1,17.75-2.79q12-11.14,23.05-23.22c8.66-9.47,18.08-18.24,26-28.46C665.19,688.86,642.47,706,621.43,726.68Zm32.65-9.51a12.34,12.34,0,0,1,6.87-5c1.72-.45,2.79-1.73,4-2.89,6.36-6.33,12.4-13,19.15-18.91,4.66-4.06,6.8-9.44,9.8-14.41.53-.88.9-1.88-.18-2.54s-1.86.16-2.5.88c-3.29,3.72-6.45,7.55-9.82,11.18-13.43,14.44-26.4,29.32-41.25,42.4-1.32,1.17-4.53,2.46-2.74,4.54,2.22,2.58,4.4.1,6.93-2.63C645.33,724.82,650.71,721.79,654.08,717.17ZM572.81,556.61c.87-.79,2.52-1.38,1.33-2.86s-2.31-.12-3.57.42c-11,4.74-17.35,14.93-26,22.37-7.18,6.15-11.36,14.81-18.38,21.13-2.92,2.63-6.67,3.79-9.29,6.65a30.11,30.11,0,0,0-2.22,2.45,2.24,2.24,0,0,0,.22,3c1.23,1.26,2,0,2.7-.74,4.52-4.46,9-9,13.49-13.46C544.51,582.1,558.68,569.38,572.81,556.61Zm213.56,6.61a120.6,120.6,0,0,0-7-29.39c-.89,3-.86,4.7.24,9.73.88,4,1.75,8.08,2.72,12.1,2.34,9.71,1.42,19.14-2.94,29.37C786.35,578.37,787.19,571.05,786.37,563.22Zm-85.66-96a43.64,43.64,0,0,0,13.19,1.7c-6.44-4-23.72-7.63-35.45-7.86-5.8-.12-10.37,2.15-14.37,6.23C676.37,461.81,688.53,464,700.71,467.19ZM696,682.64c-.6.84-.26,1.86.09,2.78,1.2,3.07,2.37,6.15,3.64,9.19.35.82.58,2,1.75,2.07s1.81-1.12,2.46-2a3,3,0,0,0,.61-1.5A60.66,60.66,0,0,0,703.19,673C700.48,676.6,698.19,679.59,696,682.64ZM555.8,543a5.49,5.49,0,0,0-3.43,1.24c-1.67,1.4-2.06,2.61.34,3.57,3.2,1.29,6.41,2.55,9.61,3.82a3.4,3.4,0,0,0,4.12-.91c2.35-2.59,5.34-4.28,9.18-6.37A85,85,0,0,0,555.8,543ZM509.56,622.9c-1.19,1.5.29,10.64,1.78,11.75a1.61,1.61,0,0,0,1.08.28c1.67-.21,6.64-6.56,6.53-8.4-.12-2.06-.49-4.11-.55-6.16s.13-4,.23-6.71A52.43,52.43,0,0,0,509.56,622.9ZM612.43,735.77c9,4.79,13.52,3.41,20.13-6.44C624.74,728.79,616.72,726.72,612.43,735.77ZM588.6,542.46c1.79-.36,3.14-1.17,3.12-3.17a6.61,6.61,0,0,0-2.28-5.48c-1-.74-1.82-.06-2.52.63-2.6,2.56-5.16,5.15-8.29,8.28A26.22,26.22,0,0,0,588.6,542.46ZM713.29,660.12c1-1,1.06-1.94-.1-2.74a7.51,7.51,0,0,0-5.83-1.56c-2.06.43-2.12,2.41-2.36,4-.39,2.41-.91,4.88.26,8.36C708.27,665.13,710.77,662.61,713.29,660.12Z" style="fill:#333"/><path d="M516.25,799.08c2.28,2.26,2.7,3.95.2,6.52a186.09,186.09,0,0,1-26.25,22.79,18.82,18.82,0,0,1-18.88,2.12,82.46,82.46,0,0,1-18.67-10.65c-15.18-11.38-27.39-25.23-35.22-42.68-3.31-7.38-2.34-14.47,2.32-20.8a275.33,275.33,0,0,1,21-24.55c3.7-4,4.32-3.88,8.3.09q16.59,16.55,33.16,33.15C493.53,776.41,504.84,787.79,516.25,799.08Zm-68-65.33c-2.48-2.54-4.21-2.94-6.66-.08-7,8.16-14.62,15.84-20.84,24.65-3.82,5.42-4.64,11.5-1.73,17.69,11.1,23.65,28.52,41.07,52,52.37a17.1,17.1,0,0,0,18.77-1.87,227.37,227.37,0,0,0,24.05-20.9c2.53-2.54,2.08-4.18-.24-6.46-11-10.87-21.93-21.86-32.88-32.81S459,744.71,448.23,733.75Z" style="fill:#333"/><path d="M705.46,629.44c2.31,6.87.36,12.41-4.63,16.82-13.43,11.88-27.24,23.33-41.56,34.15-3.52,2.65-4.68,2.36-6.57-1.58-7.22-15-15.71-29.15-27.19-41.33-1.4-1.49-2.53-3.15-1.32-5.18,1.71-2.88.11-4.61-1.83-6.36s-3.53-4.55-7-2.7c-2,1.08-3.68.37-5.24-1.1-12.19-11.48-26.32-20-41.33-27.19-4-1.93-4.3-2.86-1.59-6.52,10.51-14.2,21.94-27.66,33.41-41.08,4.9-5.74,11.1-7.6,18.66-5A145.11,145.11,0,0,1,673,575.26,143,143,0,0,1,705.46,629.44Zm-85.77-84.88c-8.6-3-13.62-1.29-19.55,6q-15.23,18.82-30.61,37.52c-2.28,2.76-2,4.26,1.38,5.83a161.06,161.06,0,0,1,40.35,26.48c1.44,1.3,2.78,1.63,4.47.7,2.33-1.29,4.18-.58,5.86,1.31,2.78,3.13,7.53,5.4,4.31,11-.61,1.06.5,2,1.24,2.86A163.77,163.77,0,0,1,653.81,677c1.43,3,2.92,3.2,5.27,1.29,9.11-7.38,18.38-14.58,27.29-22.2,5.53-4.72,11.69-8.78,16.1-14.77a10.22,10.22,0,0,0,1.67-9.76,130.76,130.76,0,0,0-84.45-87Z" style="fill:#333"/><path d="M919.92,184.5c2.33-2.32,3.08-3.65-.85-4.92a85.59,85.59,0,0,1-9.46-4.22c-3-1.39-3-2.83-.61-5.2,4-3.89,8.82-3.13,13.62-3.45,5.06-.33,10.5,2.8,14.91.17s7.39-7,10.91-10.71c4.65-4.92,10.14-9.1,14-14.7a149.12,149.12,0,0,1,13-16.08c10.79-11.78,23.12-21.73,36-31.13,10.22-7.46,21-12,33.95-10.29a169.22,169.22,0,0,1,33.36,8.2c4.56,1.6,9.26,3,13.38,5.54,13.58,8.54,25,19.58,35.23,31.79,4,4.74,7.87,9.71,10.38,15.42a168.72,168.72,0,0,1,11.71,41,42.58,42.58,0,0,1-4.75,28.46c-2.86,5.13-7.06,9.19-10.21,14-8.66,13.35-19.93,24.25-31.68,34.82-4.78,4.29-10.6,7-15.19,11.34-6.53,6.17-12.69,12.73-19.15,19-2.1,2-3,4-2.32,7,1.16,5.44.84,11,.91,16.54,0,3.71-2.12,6.21-4.31,8.67-1.49,1.69-3,1.05-3.9-.83-1.5-3.1-3-6.22-4.37-9.39-2-4.71-2-4.75-5.77-1q-42.69,42.71-85.35,85.43a28.73,28.73,0,0,0-3.12,3.32C950.38,416.94,940.38,430.49,929,443c-8,8.83-16.11,17.58-26,24.28-12.57,8.53-25.79,16-39.1,23.39a17.13,17.13,0,0,1-13.55,1.59,123.87,123.87,0,0,1-17.29-5.76c-4.55-2-9-4.35-13.65-6-25.57-8.89-45.51-24.44-58.54-48.5-4-7.34-6.19-15.38-9.81-22.82A144.57,144.57,0,0,1,741,381.6a13.08,13.08,0,0,1,1.14-10c3.34-6,6.89-12,10-18.12,13.27-26.14,33.48-46.07,56.33-63.72,11.9-9.19,24.36-17.65,34.84-28.63,11.37-11.89,23.22-23.33,34.86-35Q899.06,205.3,919.92,184.5Zm182.21,40c15.55-22.35,26.42-46.83,33.77-73,.93-3.32.65-5.93-1.36-8.48a243.8,243.8,0,0,0-33.08-34.75c-3.56-3-6.8-6.47-10.72-9.11a9.58,9.58,0,0,0-8.48-1.54c-32.84,8.68-61.91,24.75-89,44.74-5.66,4.18-11.62,8-17.43,11.93-.88.59-2.22,1.06-1.89,2.38.26,1.06,1.57,1,2.47,1.17,30.28,7.35,53.67,25.09,73.37,48.48a123.1,123.1,0,0,1,26.34,52.43c.12.52.34,1,.84,2.45C1085.6,248.59,1093.8,236.51,1102.13,224.53ZM991.81,317c2.51-2.47,2.78-4.44,1.22-7.54q-23.07-45.76-68.8-68.78c-3.12-1.57-5.1-1.21-7.56,1.26-19.59,19.72-39.13,39.48-59,58.86-11.69,11.38-23.22,22.92-34.92,34.27-2.59,2.51-3,4.08-.27,7,13.72,14.78,27,30,41.66,43.87,9.45,8.9,19.18,17.51,28.69,26.34,2.14,2,3.22.78,4.72-.73q23.7-23.81,47.49-47.53l-.16-.16C960.47,348.27,976.06,332.58,991.81,317ZM898.11,431.6a4.78,4.78,0,0,0,1.79-2.73c.26-2.44,1.43-5.58-.66-7-1.64-1.15-3.54,1.58-5,2.85-10.12,9-20.18,18.06-30.06,27.32-10.21,9.59-21.31,13.16-34.79,7.06-26.88-12.16-46-31.69-56.49-59.27-4.15-10.9-.06-20.35,7.26-28.59,10-11.26,20.13-22.39,30.17-33.61.78-.88,2.38-1.64,1.77-3s-2.39-1.09-3.73-1.13a8.27,8.27,0,0,0-6.41,2.28q-24.39,23.37-48.94,46.56a8.78,8.78,0,0,0-3,8.06c2.24,20.72,9.42,39.39,22.56,55.68,18.08,22.41,41.94,34,70.1,37.59,3.74.47,6.7-.25,9.16-3.3a81.32,81.32,0,0,1,6.12-6.2C871.45,460,884.25,445.31,898.11,431.6ZM780.29,374.15c-7.25,8.3-9.1,17.64-4.52,28.08,11.58,26.42,30.58,45.25,57.24,56.25,10.4,4.29,19.56,1.27,27.56-5.8,11.59-10.22,22.94-20.72,34.48-31,2.3-2.05,2-3.4-.15-5.27-16.51-14.27-32.83-28.76-47.76-44.68C837,361,826.64,350.45,817.4,338.91c-2.68-3.36-4.33-1.38-7,1.76C800.94,351.15,790.46,362.52,780.29,374.15Zm198.9-213.76c-5.72-1.69-9.41-.08-13.35,3.38-8.9,7.82-15.79,17.36-23,26.65-6.75,8.74-13.16,17.74-19.89,26.49-1.72,2.24-1.35,3,1,4.13a182,182,0,0,1,54.63,39.07,176.58,176.58,0,0,1,33.46,48.57c1.62,3.53,2.79,3.79,5.78,1.4,15.81-12.7,32.84-23.86,47.67-37.79,2.8-2.63,5.07-5.81,7.57-8.77a5.36,5.36,0,0,0,1-5,122.25,122.25,0,0,0-23.46-48,148.5,148.5,0,0,0-12.92-14C1021,178.83,1001.78,167,979.19,160.39ZM923,222.52c-2.43-1.15-3.94-1.13-5.51,1.19a58.23,58.23,0,0,1-5.26,6.38c-1.9,2.08-.94,2.92,1.18,3.78a167.53,167.53,0,0,1,36.68,20.66c18.23,13.48,32,30.6,42.62,50.47a111.34,111.34,0,0,1,7.19,15.37c.9,2.56,2.09,3.08,4,.93a12.55,12.55,0,0,1,1.52-1.4c8.34-6.82,8.19-4.44,2.89-14.89a178.64,178.64,0,0,0-33.49-46A184.54,184.54,0,0,0,923,222.52ZM794.2,303.91c-11.57,11.6-24.32,22.14-32.27,36.94-3.13,5.82-6.87,11.32-10.13,17.08-4.46,7.91-7.31,16.36-7.43,25.56,0,1.05-.5,2.48.72,3s1.88-.91,2.58-1.65c11.36-11.89,23.75-22.7,35.72-33.94,5-4.64,9-9.35,11.28-15.83,2.22-6.26,6.4-11.56,10.32-16.89,2.9-4,2.93-4-1.72-4.76l-1.23-.19c-7.29-1.37-7.35-1.48-5.61-10.68A14.23,14.23,0,0,0,794.2,303.91Zm126.07,126c-.55-3.57-1.4-3.76-4.19-1.65-7.28,5.52-14.89,10.51-23.67,13.41-3.89,1.28-6.14,4.66-8.67,7.49-11,12.26-22.11,24.31-33.78,35.89-1,1-2.42,1.83-2.86,3.7a23.64,23.64,0,0,0,9.77-.08,62.43,62.43,0,0,0,21.19-8c16.88-9.81,33.24-20.28,46.16-35.28,1.17-1.36,2.43-2.64,3.59-4s2.24-2.8,3.75-4.68C922.1,439.51,921.75,439.39,920.27,429.94ZM1030.72,93c-5.4,1.67-10.64,4.06-16.15,5.2-8.7,1.8-15.19,7-21.45,12.62-9.55,8.6-18.89,17.53-26.45,27.91a155.83,155.83,0,0,1-13.81,15.82c-1.1,1.16.33,8.91,1.77,9.55,1,.46,1.82-.43,2.61-.86,3.4-1.84,6.72-3.8,10.11-5.66a6,6,0,0,0,2.69-2.48c4.85-9.93,12.6-17.31,21.07-24.08,12.28-9.8,23.91-20.4,36.6-29.69,4.42-3.24,9-6.19,14.6-10A33.36,33.36,0,0,0,1030.72,93ZM1126,214.27c-10,12-19.75,24.1-29.78,36A49.81,49.81,0,0,1,1082,261.57c-3.67,2-6.47,4.61-7.93,8.59a18.22,18.22,0,0,1-1.57,2.91c-3.4,5.76-3.35,5.64,2.64,8.51,1.68.8,2.55.44,3.5-.75,6.21-7.78,15.26-12.17,22.49-18.71,10.64-9.62,21.27-19.32,29.37-31.31,5.18-7.67,6-17.12,9.45-25.51a27.17,27.17,0,0,0,2-12.61C1136.66,200,1131.69,207.4,1126,214.27Zm-23.77,25.89q12.45-15.19,24.9-30.4A138.81,138.81,0,0,0,1140.58,190a7.8,7.8,0,0,0,1.06-5.15c-1.31-9.37-5.19-18.33-4.77-28.31-10.56,39.12-33.85,71-56.53,103.35C1089.69,255.54,1095.91,247.82,1102.2,240.16ZM1078.67,96.65c-10.48.76-20.08-3.2-30.07-4.65a7,7,0,0,0-4.74,1,211.69,211.69,0,0,0-31.35,22.9c-8,6.93-16.28,13.62-24.5,20.34a56.56,56.56,0,0,0-14.29,16.94C1006.61,130.33,1038.9,106.73,1078.67,96.65Zm-169,322.58c22.58-22.58,44.89-45.43,67.8-67.66,14-13.55,29.31-25.58,44.78-37.42,13.47-10.31,26.68-21,40-31.47,5.49-4.32,8.57-10.3,11.9-16.87-14,16.62-32,27.49-48.25,40.39-10.38,8.24-20.83,16.35-30.63,25.31-15.27,14-30.76,27.71-46.07,41.65-7.66,7-15.12,14.16-22.67,21.26-6.94,6.53-13.93,13-20.8,19.61-5,4.82-5,4.89-3.13,12.63C905.78,424.87,907.31,421.62,909.7,419.23ZM820.55,326.7c7.33-9,15.93-16.86,23.93-25.26,16.5-17.29,32.38-35.15,48.6-52.69a663,663,0,0,0,47.57-58.38c7.5-10.24,15-20.55,24.5-29.21-4.73,2.82-9.92,4.71-13.51,9.34-13.18,17-26.63,33.83-39.82,50.85-27.45,35.4-60.16,65.84-91.74,97.33-2.15,2.14-4.63,3.94-6.86,6s-4.1,4.07-6.26,6.23C813.24,333.84,816.76,331.34,820.55,326.7Zm80.25,84.17c-.78.79-1.57,1.56-2.32,2.38s-1.56,1.78-.55,2.88c1.16,1.27,2.24.49,3.21-.39,4.1-3.71,8.39-7.23,12.25-11.17,15-15.33,31.15-29.43,46.81-44.05,12.31-11.49,25.11-22.46,37.72-33.63,1.18-1.05,1.75-2.15,1.11-3.63-1-2.25-1.18-5.05-3.28-6.49-1-.69-2,1.13-2.83,2Q969.57,342,946.25,365.37l0,0Zm14.42-170c2.34-2.28,2.62-3.44-.82-4.72-5.74-2.15-5.54-2.17-9.78,2.65-7.56,8.61-15.19,17.17-23,25.54-19.72,21.1-38.9,42.69-59.32,63.13a67.35,67.35,0,0,0-4.73,5.76c-.54.68-.86,1.49-.12,2.22s1.54.42,2.22-.12a26.44,26.44,0,0,0,2.15-1.95q17-17,34.07-34t34-34l.36.37C898.56,257.43,906.81,249.06,915.22,240.84ZM929.6,413.06c14.84-11.94,28.8-24.9,43.17-37.4,2.6-2.26,4.9-4.86,7.38-7.26,1.74-1.69,1.23-2.53-1-2.84a1.36,1.36,0,0,1-.41-.09c-6.56-3.36-11.09-1.11-16,4.13-11.09,11.94-23,23.12-34.42,34.75-7.84,8-15.44,16.19-23.15,24.3a8.51,8.51,0,0,0-2.37,4C912.94,427.1,921.12,419.87,929.6,413.06ZM806.71,327.14q27.1-26.53,54.18-53.1c1.19-1.16,2.24-2.47,3.51-3.53,5.27-4.42,6.68-9.57,3.77-16-.93-2-1.37-2.48-2.94-.77C858.49,261,851.58,268.2,845,275.66q-13,14.74-25.6,29.86c-6.62,7.91-13.18,15.88-18.54,25.55A13.68,13.68,0,0,0,806.71,327.14ZM940.8,424.68a9.5,9.5,0,0,1-3.62,2.7c-.68.28-1.42.5-1.82-.21a1.8,1.8,0,0,1,.17-1.52,15.78,15.78,0,0,1,1.92-2.68c3.29-3.71,6.6-7.42,10-11.06,1.36-1.47,2.54-3.41,5.12-2.8.76.19,1.28-.41,1.68-1,9.17-12.95,21.5-22.92,32.29-34.35,3.32-3.51,6.84-6.83,10.21-10.3.68-.7,2.19-1.36,1.21-2.63a3.07,3.07,0,0,0-3.42-.86,5.39,5.39,0,0,0-2,1.39C982,372,970.73,381.72,959.73,391.77c-11.19,10.24-22.36,20.54-34.61,29.49-4.15,3.05-3.7,6.18-2.88,10,1.27,6,1.8,6.11,7.36,4,7.65-2.89,11.45-9.66,16.22-15.48.78-.95,1.43-2,2.14-3l-.17-.24C945.47,419.26,943.16,422,940.8,424.68ZM803.19,296.35c-3.57,3-4.77,7.32-6,11.59a2.16,2.16,0,0,0,.27,1.56c1.58,2.5,11.42,3.15,13.27.82,19-24,39.71-46.37,60.94-68.32a19.35,19.35,0,0,0,1.61-1.89A3,3,0,0,0,873,236c-1.36-1.25-2.16.52-2.92,1.27q-12,11.79-23.83,23.7a238.15,238.15,0,0,1-19.64,17.8c-.42.35-1,.69-1.16,1.15-2.9,8.59-11.25,11.95-17,17.79-.57.57-1.37,1.27-2.1.39s-.06-1.63.39-2.28a29.47,29.47,0,0,1,6.77-6.65,15.8,15.8,0,0,0,4.64-4.57C813.14,288.48,808.07,292.3,803.19,296.35ZM936,184.67c-3.35,2.76-6.15,4.81-8.67,7.17-14.8,13.87-29.57,27.78-43.65,42.39-4.82,5-2.5,11.07-2.62,17.68C891,243.22,930.58,194.8,936,184.67Zm45.89,167.6c6.72.57,12.47,2.1,17.75-2.79,8-7.43,15.68-15.16,23.06-23.22,8.66-9.47,18.07-18.24,26-28.46C1025.7,314.45,1003,331.58,981.93,352.27Zm32.65-9.51a12.37,12.37,0,0,1,6.87-5c1.73-.45,2.8-1.73,4-2.89,6.36-6.33,12.41-13,19.16-18.91,4.66-4.06,6.8-9.44,9.79-14.41.53-.88.9-1.88-.18-2.54s-1.85.16-2.49.88c-3.29,3.72-6.45,7.55-9.83,11.18-13.43,14.44-26.4,29.32-41.24,42.4-1.33,1.16-4.54,2.46-2.74,4.54,2.22,2.58,4.4.1,6.93-2.63C1005.84,350.41,1011.22,347.38,1014.58,342.76ZM933.31,182.2c.87-.79,2.52-1.39,1.34-2.86s-2.31-.12-3.57.42c-11,4.74-17.35,14.93-26,22.37-7.18,6.15-11.35,14.8-18.37,21.13-2.92,2.62-6.68,3.79-9.3,6.65a31.93,31.93,0,0,0-2.21,2.45,2.24,2.24,0,0,0,.21,3c1.23,1.26,2,0,2.7-.74,4.53-4.46,9-9,13.5-13.46C905,207.69,919.18,195,933.31,182.2Zm213.56,6.61a120.14,120.14,0,0,0-7-29.39c-.89,3-.85,4.7.24,9.73.89,4,1.76,8.08,2.73,12.1,2.33,9.71,1.42,19.14-2.94,29.37C1146.85,204,1147.69,196.64,1146.87,188.81Zm-85.66-96a43.67,43.67,0,0,0,13.2,1.7c-6.45-4-23.73-7.63-35.46-7.86-5.79-.12-10.36,2.15-14.37,6.23C1036.87,87.39,1049,89.59,1061.21,92.78Zm-4.71,215.45c-.61.84-.27,1.86.09,2.77,1.2,3.07,2.36,6.16,3.64,9.2.35.82.57,2,1.75,2.07s1.81-1.12,2.46-2a3.09,3.09,0,0,0,.61-1.5,60.66,60.66,0,0,0-1.35-20.23C1061,302.19,1058.69,305.17,1056.5,308.23ZM916.31,168.58a5.47,5.47,0,0,0-3.43,1.24c-1.67,1.4-2.06,2.61.34,3.57,3.19,1.29,6.4,2.54,9.6,3.82a3.39,3.39,0,0,0,4.12-.92c2.35-2.58,5.35-4.27,9.19-6.36A85.06,85.06,0,0,0,916.31,168.58Zm-46.25,79.91c-1.19,1.5.29,10.64,1.78,11.74a1.7,1.7,0,0,0,1.09.29c1.66-.22,6.63-6.56,6.52-8.4-.12-2.06-.49-4.11-.55-6.17s.13-4,.24-6.7A52.51,52.51,0,0,0,870.06,248.49ZM972.94,361.36c9,4.79,13.52,3.4,20.13-6.44C985.24,354.38,977.23,352.31,972.94,361.36ZM949.1,168.05c1.8-.36,3.15-1.17,3.13-3.17a6.61,6.61,0,0,0-2.29-5.48c-1-.75-1.82-.06-2.52.63-2.59,2.56-5.16,5.15-8.29,8.28A26.22,26.22,0,0,0,949.1,168.05Zm124.7,117.66c1-1,1.06-1.94-.11-2.74a7.49,7.49,0,0,0-5.82-1.56c-2.07.43-2.12,2.41-2.37,4-.39,2.41-.9,4.88.26,8.36C1068.77,290.72,1071.27,288.2,1073.8,285.71Z" style="fill:#333"/><path d="M876.75,424.67c2.28,2.26,2.7,3.95.2,6.52A186.57,186.57,0,0,1,850.71,454a18.85,18.85,0,0,1-18.88,2.12,82.53,82.53,0,0,1-18.68-10.65c-15.18-11.39-27.39-25.23-35.22-42.68-3.31-7.38-2.33-14.47,2.32-20.8a277.11,277.11,0,0,1,21-24.55c3.7-4,4.32-3.88,8.29.08q16.61,16.56,33.16,33.16C854,402,865.35,413.38,876.75,424.67Zm-68-65.33c-2.48-2.54-4.21-2.94-6.66-.08-7,8.16-14.63,15.84-20.84,24.65-3.83,5.42-4.64,11.5-1.74,17.69,11.11,23.65,28.52,41.07,52,52.37a17.09,17.09,0,0,0,18.76-1.87,227.47,227.47,0,0,0,24.06-20.9c2.52-2.54,2.08-4.18-.25-6.47-11-10.86-21.93-21.85-32.87-32.8S819.48,370.3,808.74,359.34Z" style="fill:#333"/><path d="M1066,255c2.31,6.88.36,12.42-4.62,16.82-13.44,11.89-27.25,23.34-41.57,34.15-3.51,2.66-4.67,2.37-6.57-1.57-7.21-15-15.7-29.15-27.18-41.33-1.4-1.49-2.53-3.15-1.32-5.18,1.71-2.88.11-4.61-1.83-6.36s-3.53-4.55-7-2.7c-2,1.08-3.68.37-5.24-1.1-12.18-11.48-26.31-20-41.33-27.2-4-1.92-4.29-2.85-1.58-6.51,10.5-14.2,21.94-27.66,33.4-41.08,4.91-5.75,11.11-7.6,18.66-5a145.11,145.11,0,0,1,53.72,32.84A142.87,142.87,0,0,1,1066,255Zm-85.77-84.87c-8.59-3-13.61-1.3-19.55,6Q945.43,195,930,213.71c-2.28,2.76-2,4.26,1.37,5.83A160.93,160.93,0,0,1,971.77,246c1.43,1.3,2.78,1.63,4.47.7,2.32-1.29,4.18-.58,5.85,1.31,2.78,3.13,7.54,5.39,4.32,11-.61,1.05.49,2,1.24,2.86a163.59,163.59,0,0,1,26.67,40.73c1.42,3,2.91,3.2,5.26,1.29,9.11-7.39,18.38-14.58,27.29-22.2,5.53-4.72,11.7-8.79,16.11-14.78a10.22,10.22,0,0,0,1.67-9.75,137.7,137.7,0,0,0-32.7-55A138.5,138.5,0,0,0,980.19,170.15Z" style="fill:#333"/><path d="M717-20.2c2.34-2.31,3.09-3.64-.85-4.91a86.36,86.36,0,0,1-9.45-4.23c-3-1.39-3-2.83-.61-5.19,4-3.9,8.82-3.14,13.62-3.45,5-.34,10.5,2.8,14.91.16,4.25-2.53,7.39-7,10.9-10.71,4.66-4.91,10.14-9.1,14-14.69a150.36,150.36,0,0,1,13-16.09c10.79-11.77,23.12-21.72,36-31.12,10.22-7.47,21-12,34-10.3a168.54,168.54,0,0,1,33.36,8.21c4.56,1.6,9.26,2.94,13.38,5.53,13.58,8.55,25,19.58,35.23,31.8,4,4.73,7.87,9.71,10.38,15.42a168.12,168.12,0,0,1,11.7,41A42.59,42.59,0,0,1,941.8,9.66c-2.86,5.13-7.06,9.18-10.22,14C922.93,37,911.66,48,899.91,58.51c-4.78,4.29-10.6,7-15.19,11.34-6.53,6.17-12.7,12.73-19.15,19-2.1,2-3,4-2.32,7,1.16,5.44.84,11,.91,16.54.05,3.71-2.12,6.2-4.31,8.67-1.5,1.69-3,1-3.9-.83-1.5-3.11-3-6.23-4.37-9.4-2-4.71-2-4.74-5.78-1q-42.67,42.7-85.34,85.42a27.84,27.84,0,0,0-3.12,3.32c-9.84,13.69-19.85,27.23-31.18,39.75-8,8.83-16.11,17.58-26,24.28-12.57,8.53-25.79,16-39.11,23.38a17.07,17.07,0,0,1-13.54,1.6,125.77,125.77,0,0,1-17.3-5.76c-4.54-2-9-4.35-13.64-6-25.58-8.9-45.51-24.45-58.55-48.51-4-7.34-6.18-15.37-9.81-22.81a144.63,144.63,0,0,1-10.07-27.61,13.1,13.1,0,0,1,1.13-10c3.35-6,6.9-12,10-18.13,13.27-26.13,33.49-46.06,56.34-63.72,11.9-9.18,24.35-17.65,34.84-28.62,11.37-11.9,23.22-23.34,34.86-35Q696.18.61,717-20.2Zm182.22,40C914.8-2.51,925.67-27,933-53.15c.93-3.32.64-5.92-1.36-8.48a243.73,243.73,0,0,0-33.08-34.74c-3.56-3-6.8-6.47-10.73-9.11a9.55,9.55,0,0,0-8.48-1.54c-32.83,8.67-61.9,24.75-89,44.74-5.67,4.17-11.62,8-17.43,11.92-.88.6-2.22,1.07-1.9,2.38.27,1.06,1.58,1,2.48,1.18,30.28,7.34,53.66,25.09,73.37,48.47A123.27,123.27,0,0,1,873.19,54.1c.12.53.34,1,.83,2.46C882.72,43.89,890.91,31.81,899.25,19.84ZM788.93,112.35c2.5-2.47,2.78-4.44,1.21-7.54Q767.09,59,721.35,36c-3.12-1.57-5.1-1.2-7.56,1.27-19.59,19.71-39.14,39.47-59,58.85-11.69,11.38-23.22,22.92-34.92,34.28-2.59,2.51-3,4.08-.27,7,13.72,14.79,27,30,41.66,43.87,9.45,8.9,19.17,17.51,28.68,26.35,2.14,2,3.23.77,4.73-.73q23.7-23.8,47.49-47.54l-.16-.16C757.59,143.58,773.18,127.88,788.93,112.35ZM695.23,226.9a4.71,4.71,0,0,0,1.78-2.72c.27-2.44,1.44-5.58-.65-7.05-1.64-1.15-3.54,1.59-5,2.86-10.12,9-20.19,18-30.06,27.32-10.22,9.59-21.32,13.15-34.79,7.05-26.88-12.15-46-31.69-56.49-59.26-4.15-10.9-.06-20.35,7.25-28.59,10-11.26,20.13-22.4,30.18-33.62.78-.87,2.38-1.64,1.77-3s-2.39-1.09-3.73-1.14a8.28,8.28,0,0,0-6.41,2.29q-24.39,23.35-48.94,46.56a8.76,8.76,0,0,0-3,8c2.24,20.72,9.42,39.4,22.56,55.69,18.07,22.41,41.94,34,70.1,37.58,3.74.48,6.7-.25,9.16-3.3a85.16,85.16,0,0,1,6.12-6.2C668.57,255.33,681.37,240.61,695.23,226.9ZM577.41,169.46c-7.25,8.29-9.1,17.64-4.53,28.07,11.59,26.43,30.59,45.25,57.25,56.26,10.4,4.29,19.55,1.27,27.56-5.8,11.59-10.23,22.94-20.72,34.48-31,2.3-2,2-3.39-.15-5.27C675.51,197.44,659.19,183,644.25,167c-10.09-10.76-20.49-21.27-29.73-32.81-2.69-3.36-4.33-1.38-7,1.76C598.06,146.46,587.58,157.82,577.41,169.46ZM776.31-44.31c-5.72-1.68-9.41-.08-13.36,3.39-8.89,7.82-15.78,17.35-23,26.64-6.74,8.74-13.15,17.75-19.88,26.5-1.72,2.23-1.35,3,1,4.13A182.05,182.05,0,0,1,775.8,55.41,176.85,176.85,0,0,1,809.26,104c1.62,3.53,2.79,3.79,5.78,1.39,15.8-12.7,32.84-23.86,47.66-37.78,2.8-2.63,5.08-5.82,7.57-8.77a5.32,5.32,0,0,0,1-5,122.21,122.21,0,0,0-23.45-48,148.5,148.5,0,0,0-12.92-14C818.14-25.86,798.9-37.66,776.31-44.31ZM720.1,17.82c-2.42-1.15-3.93-1.12-5.51,1.2a57.94,57.94,0,0,1-5.25,6.38c-1.9,2.08-.94,2.91,1.18,3.77A167.16,167.16,0,0,1,747.2,49.84c18.23,13.47,32,30.6,42.62,50.47A113,113,0,0,1,797,115.67c.9,2.57,2.09,3.09,4,.93a13.49,13.49,0,0,1,1.52-1.4c8.34-6.81,8.19-4.44,2.89-14.88a178.69,178.69,0,0,0-33.49-46A184.79,184.79,0,0,0,720.1,17.82ZM591.32,99.22c-11.57,11.6-24.33,22.13-32.27,36.93-3.13,5.83-6.88,11.32-10.13,17.09-4.47,7.91-7.31,16.35-7.43,25.55,0,1.06-.5,2.49.71,3s1.89-.91,2.59-1.65c11.36-11.89,23.75-22.71,35.72-33.95,5-4.64,9-9.34,11.28-15.83,2.21-6.25,6.4-11.55,10.32-16.88,2.9-4,2.93-4-1.72-4.77-.41-.06-.82-.11-1.23-.19-7.29-1.36-7.36-1.47-5.61-10.68A13.64,13.64,0,0,0,591.32,99.22Zm126.07,126c-.56-3.57-1.41-3.77-4.2-1.65-7.27,5.51-14.88,10.51-23.67,13.4-3.88,1.29-6.13,4.66-8.66,7.5-11,12.25-22.11,24.31-33.78,35.88-1,1-2.42,1.83-2.86,3.71A23.64,23.64,0,0,0,654,284a62.51,62.51,0,0,0,21.19-8c16.88-9.82,33.24-20.29,46.15-35.28,1.17-1.36,2.43-2.64,3.59-4s2.25-2.79,3.76-4.68C719.22,234.81,718.87,234.69,717.39,225.25ZM827.84-111.68c-5.41,1.67-10.64,4.05-16.15,5.19-8.7,1.8-15.2,7-21.45,12.63-9.55,8.59-18.89,17.53-26.45,27.9A154.87,154.87,0,0,1,750-50.13c-1.1,1.15.33,8.91,1.77,9.54,1,.47,1.81-.43,2.61-.86,3.39-1.84,6.72-3.8,10.1-5.65a6,6,0,0,0,2.7-2.49c4.85-9.92,12.6-17.31,21.07-24.07,12.28-9.8,23.91-20.41,36.6-29.7,4.42-3.23,9-6.19,14.6-10A33.31,33.31,0,0,0,827.84-111.68ZM923.09,9.58c-10,12-19.75,24.1-29.78,36a50,50,0,0,1-14.19,11.28c-3.67,2-6.47,4.61-7.93,8.58a18.59,18.59,0,0,1-1.57,2.91c-3.41,5.76-3.36,5.65,2.64,8.52,1.67.8,2.54.44,3.49-.75C882,68.36,891,64,898.25,57.43c10.63-9.63,21.27-19.33,29.37-31.31C932.8,18.45,933.56,9,937.07.61a27.32,27.32,0,0,0,2-12.61C933.77-4.71,928.81,2.7,923.09,9.58ZM899.31,35.47q12.47-15.19,24.91-30.4A140.22,140.22,0,0,0,937.7-14.74a7.88,7.88,0,0,0,1.06-5.15c-1.32-9.38-5.2-18.33-4.77-28.31-10.56,39.12-33.85,71-56.53,103.35C886.81,50.85,893,43.12,899.31,35.47ZM875.79-108c-10.48.76-20.08-3.2-30.07-4.65a7,7,0,0,0-4.74,1A211.75,211.75,0,0,0,809.63-88.8c-8,6.93-16.29,13.62-24.5,20.34a56.43,56.43,0,0,0-14.29,16.94C803.73-74.37,836-98,875.79-108Zm-169,322.58c22.58-22.58,44.89-45.43,67.8-67.66,14-13.54,29.31-25.58,44.77-37.41,13.48-10.31,26.69-21,40-31.47,5.49-4.32,8.56-10.31,11.89-16.88-14,16.62-32,27.49-48.24,40.4-10.38,8.23-20.84,16.35-30.63,25.3-15.28,14-30.76,27.72-46.07,41.66-7.66,7-15.13,14.16-22.67,21.25-7,6.53-13.94,13-20.81,19.61-5,4.83-5,4.9-3.12,12.64C702.89,220.17,704.43,216.93,706.82,214.53ZM617.67,122c7.33-9,15.92-16.87,23.93-25.26C658.1,79.45,674,61.6,690.2,44.06a664.56,664.56,0,0,0,47.57-58.39c7.5-10.23,15-20.54,24.5-29.2-4.74,2.82-9.92,4.7-13.51,9.34-13.18,17-26.63,33.83-39.83,50.84-27.45,35.4-60.15,65.84-91.74,97.33-2.14,2.14-4.63,3.94-6.85,6s-4.1,4.06-6.26,6.22C610.36,129.15,613.87,126.65,617.67,122Zm80.25,84.17c-.78.78-1.57,1.56-2.32,2.37s-1.56,1.78-.55,2.88c1.16,1.28,2.24.49,3.21-.38,4.1-3.71,8.39-7.23,12.25-11.18,15-15.32,31.14-29.43,46.81-44,12.31-11.49,25.11-22.47,37.72-33.64,1.18-1,1.75-2.14,1.11-3.63-1-2.24-1.18-5-3.28-6.48-1-.7-2,1.13-2.83,2q-23.35,23.28-46.67,46.63l0,0Zm14.42-170c2.34-2.29,2.61-3.44-.82-4.73-5.74-2.14-5.54-2.17-9.78,2.66-7.56,8.61-15.19,17.17-23,25.54-19.72,21.09-38.9,42.69-59.32,63.12a66,66,0,0,0-4.73,5.77c-.55.68-.86,1.48-.13,2.22s1.55.42,2.23-.12a24.72,24.72,0,0,0,2.14-2q17.05-17,34.07-34t34-34l.37.37C695.68,52.73,703.93,44.36,712.34,36.15Zm14.37,172.21c14.85-11.93,28.81-24.9,43.18-37.39,2.6-2.26,4.9-4.86,7.38-7.27,1.74-1.69,1.23-2.53-1-2.84a1.37,1.37,0,0,1-.4-.09c-6.56-3.35-11.1-1.1-16,4.13-11.09,11.94-23,23.13-34.42,34.76-7.84,8-15.44,16.19-23.16,24.29a8.73,8.73,0,0,0-2.37,4C710.06,222.4,718.24,215.18,726.71,208.36ZM603.83,122.45,658,69.34c1.19-1.16,2.24-2.47,3.5-3.53,5.27-4.41,6.69-9.56,3.77-16-.92-2-1.36-2.49-2.94-.78C655.61,56.35,648.7,63.51,642.13,71c-8.68,9.84-17.18,19.82-25.6,29.87-6.62,7.9-13.18,15.87-18.54,25.55A13.83,13.83,0,0,0,603.83,122.45ZM737.92,220a9.71,9.71,0,0,1-3.62,2.7c-.68.27-1.42.5-1.83-.21a1.87,1.87,0,0,1,.17-1.53,17,17,0,0,1,1.92-2.68c3.3-3.71,6.61-7.41,10-11.05,1.37-1.48,2.55-3.41,5.12-2.8.77.18,1.28-.41,1.69-1,9.16-12.95,21.5-22.93,32.29-34.35,3.32-3.52,6.84-6.83,10.21-10.3.68-.7,2.18-1.37,1.21-2.64a3.1,3.1,0,0,0-3.43-.85,5.33,5.33,0,0,0-2,1.38c-10.51,10.59-21.78,20.34-32.78,30.4-11.19,10.24-22.37,20.53-34.61,29.49-4.15,3-3.7,6.18-2.88,10,1.27,5.95,1.8,6.11,7.36,4,7.65-2.89,11.45-9.66,16.22-15.47.78-1,1.43-2,2.14-3l-.17-.23C742.58,214.56,740.28,217.3,737.92,220ZM600.3,91.65c-3.56,3-4.76,7.33-5.95,11.59a2.14,2.14,0,0,0,.26,1.56c1.58,2.5,11.43,3.15,13.28.82,19-24,39.7-46.36,60.94-68.31a22.44,22.44,0,0,0,1.61-1.9,3,3,0,0,0-.33-4.15c-1.37-1.25-2.16.53-2.92,1.27q-12,11.8-23.83,23.7A238.27,238.27,0,0,1,623.72,74c-.43.34-1,.69-1.16,1.15-2.9,8.59-11.26,11.94-17,17.78-.57.58-1.36,1.27-2.1.4s-.06-1.63.39-2.28a29.31,29.31,0,0,1,6.78-6.65,16.3,16.3,0,0,0,4.64-4.57C610.26,83.79,605.18,87.6,600.3,91.65ZM733.16-20c-3.36,2.76-6.16,4.82-8.67,7.18C709.69,1,694.92,14.92,680.84,29.53c-4.82,5-2.5,11.08-2.63,17.68C688.12,38.52,727.7-9.89,733.16-20Zm45.89,167.61c6.72.57,12.47,2.09,17.75-2.8q12-11.13,23.05-23.21c8.67-9.47,18.08-18.25,26-28.46C822.81,109.76,800.09,126.88,779.05,147.58Zm32.65-9.51a12.39,12.39,0,0,1,6.87-5c1.73-.45,2.8-1.72,4-2.88,6.36-6.34,12.41-13,19.15-18.91,4.66-4.07,6.8-9.44,9.8-14.42.53-.88.9-1.88-.18-2.54s-1.85.16-2.49.89c-3.29,3.71-6.45,7.54-9.83,11.18-13.43,14.44-26.4,29.32-41.24,42.39-1.33,1.17-4.54,2.46-2.74,4.55,2.22,2.58,4.39.09,6.92-2.63C803,145.72,808.34,142.68,811.7,138.07ZM730.43-22.5c.87-.78,2.52-1.38,1.34-2.86s-2.31-.12-3.57.42c-11.05,4.75-17.35,14.94-26,22.38C695,3.58,690.8,12.24,683.78,18.56c-2.91,2.63-6.67,3.8-9.29,6.65a32.07,32.07,0,0,0-2.21,2.46,2.24,2.24,0,0,0,.21,3c1.23,1.26,2-.05,2.7-.75,4.53-4.46,9-9,13.5-13.46C702.13,3,716.3-9.72,730.43-22.5ZM944-15.88a120.6,120.6,0,0,0-7-29.39c-.89,3-.86,4.7.24,9.72.88,4,1.76,8.08,2.72,12.1,2.34,9.71,1.42,19.15-2.94,29.37C944-.74,944.81-8.06,944-15.88Zm-85.66-96a43.33,43.33,0,0,0,13.19,1.69c-6.44-4-23.72-7.63-35.45-7.86-5.8-.11-10.36,2.15-14.37,6.23C834-117.3,846.15-115.11,858.33-111.91Zm-4.72,215.44a2.87,2.87,0,0,0,.1,2.78c1.2,3.07,2.36,6.15,3.64,9.19.34.83.57,2,1.74,2.07s1.81-1.11,2.46-2a3.14,3.14,0,0,0,.62-1.51,61.12,61.12,0,0,0-1.35-20.22C858.11,97.49,855.81,100.48,853.61,103.53ZM713.42-36.12A5.46,5.46,0,0,0,710-34.88c-1.67,1.4-2.07,2.62.33,3.58,3.2,1.28,6.41,2.54,9.61,3.81a3.38,3.38,0,0,0,4.12-.91c2.35-2.58,5.35-4.28,9.18-6.37A86.13,86.13,0,0,0,713.42-36.12ZM667.18,43.79c-1.19,1.51.29,10.65,1.78,11.75a1.68,1.68,0,0,0,1.09.29c1.66-.22,6.63-6.57,6.52-8.4-.12-2.06-.49-4.11-.55-6.17s.13-4,.24-6.7A52.47,52.47,0,0,0,667.18,43.79ZM770.06,156.67c9,4.78,13.52,3.4,20.13-6.44C782.36,149.68,774.34,147.62,770.06,156.67ZM746.22-36.64c1.8-.36,3.14-1.17,3.12-3.18a6.57,6.57,0,0,0-2.28-5.47c-1-.75-1.82-.07-2.52.62-2.59,2.56-5.16,5.15-8.29,8.28A26.24,26.24,0,0,0,746.22-36.64ZM870.91,81c1-1,1.07-1.94-.1-2.75A7.53,7.53,0,0,0,865,76.72c-2.07.43-2.12,2.4-2.37,4-.39,2.42-.91,4.89.26,8.36C865.89,86,868.39,83.51,870.91,81Z" style="fill:#333"/><path d="M673.87,220c2.28,2.26,2.7,4,.2,6.52a186,186,0,0,1-26.24,22.8A18.85,18.85,0,0,1,629,251.4a82.49,82.49,0,0,1-18.68-10.64c-15.18-11.39-27.39-25.24-35.22-42.69-3.31-7.38-2.34-14.47,2.32-20.8a279.89,279.89,0,0,1,21-24.55c3.71-4,4.32-3.88,8.3.09q16.61,16.56,33.16,33.15Q656.82,203,673.87,220Zm-68-65.33c-2.48-2.53-4.21-2.93-6.67-.08-7,8.17-14.62,15.84-20.84,24.65-3.82,5.42-4.64,11.51-1.73,17.7,11.11,23.64,28.52,41.06,52,52.37a17.09,17.09,0,0,0,18.76-1.88,227.37,227.37,0,0,0,24.05-20.9c2.53-2.53,2.09-4.17-.24-6.46-11-10.86-21.93-21.86-32.87-32.8S616.59,165.6,605.86,154.64Z" style="fill:#333"/><path d="M863.08,50.33c2.31,6.88.36,12.41-4.62,16.82C845,79,831.21,90.48,816.89,101.3c-3.51,2.66-4.68,2.36-6.57-1.57-7.21-15-15.7-29.15-27.19-41.34-1.39-1.48-2.52-3.15-1.32-5.18,1.71-2.87.12-4.6-1.82-6.36s-3.53-4.55-7-2.7c-2,1.09-3.68.37-5.24-1.09-12.18-11.49-26.32-20-41.33-27.2-4-1.92-4.29-2.86-1.59-6.52,10.51-14.2,22-27.66,33.41-41.08,4.91-5.74,11.11-7.6,18.66-4.95A145.37,145.37,0,0,1,830.66-3.85,142.91,142.91,0,0,1,863.08,50.33ZM777.31-34.54c-8.6-3-13.62-1.3-19.55,6Q742.55-9.67,727.16,9c-2.28,2.77-2,4.26,1.37,5.84a161.25,161.25,0,0,1,40.36,26.47c1.43,1.3,2.77,1.64,4.47.7,2.32-1.28,4.18-.58,5.85,1.31,2.78,3.14,7.54,5.4,4.32,11-.61,1.05.49,2,1.24,2.86a163.81,163.81,0,0,1,26.67,40.72c1.42,3,2.91,3.2,5.26,1.3C825.81,91.79,835.08,84.59,844,77c5.53-4.73,11.7-8.79,16.11-14.78a10.2,10.2,0,0,0,1.66-9.75A137.67,137.67,0,0,0,829.07-2.61,138.48,138.48,0,0,0,777.31-34.54Z" style="fill:#333"/><path d="M311.29,377.89c2.33-2.31,3.08-3.64-.85-4.91a86.56,86.56,0,0,1-9.45-4.23c-3-1.39-3-2.83-.62-5.2,4-3.89,8.83-3.13,13.62-3.44,5.06-.34,10.51,2.8,14.92.16,4.25-2.53,7.38-7,10.9-10.71,4.65-4.91,10.14-9.1,14-14.69a149.23,149.23,0,0,1,13-16.09c10.79-11.77,23.12-21.72,36-31.13,10.21-7.46,21-12,33.94-10.29a168.64,168.64,0,0,1,33.37,8.21c4.55,1.6,9.26,2.94,13.37,5.53,13.58,8.54,25,19.58,35.23,31.8,4,4.73,7.87,9.71,10.38,15.42a168.15,168.15,0,0,1,11.71,41,42.55,42.55,0,0,1-4.75,28.45c-2.86,5.14-7.06,9.19-10.21,14.05-8.66,13.34-19.92,24.25-31.68,34.81-4.77,4.29-10.6,7-15.19,11.34-6.53,6.17-12.69,12.73-19.15,19-2.09,2-2.95,4-2.32,7,1.16,5.44.84,11,.92,16.54.05,3.71-2.13,6.2-4.31,8.67-1.5,1.69-3,1-3.9-.83-1.51-3.11-3-6.23-4.37-9.4-2-4.71-2-4.74-5.78-1l-85.35,85.42a29.57,29.57,0,0,0-3.12,3.32c-9.84,13.69-19.84,27.23-31.17,39.75-8,8.83-16.12,17.57-26,24.27-12.58,8.53-25.8,16.05-39.11,23.39a17.07,17.07,0,0,1-13.54,1.6,126.68,126.68,0,0,1-17.3-5.76c-4.54-2-9-4.35-13.65-6-25.57-8.9-45.5-24.45-58.54-48.51-4-7.34-6.19-15.38-9.81-22.81A145.6,145.6,0,0,1,132.4,575a13.1,13.1,0,0,1,1.14-10c3.35-6,6.9-12,10-18.13,13.27-26.13,33.48-46.06,56.34-63.72,11.89-9.18,24.35-17.65,34.83-28.62,11.37-11.9,23.22-23.34,34.86-35Q290.43,398.7,311.29,377.89Zm182.21,40c15.56-22.35,26.42-46.82,33.77-73,.93-3.32.65-5.92-1.36-8.48a243.66,243.66,0,0,0-33.07-34.74c-3.56-3.06-6.81-6.47-10.73-9.11a9.55,9.55,0,0,0-8.48-1.54c-32.84,8.67-61.91,24.75-89.05,44.74-5.66,4.17-11.62,7.94-17.43,11.92-.87.6-2.22,1.07-1.89,2.38.26,1.06,1.57,1,2.47,1.18,30.29,7.34,53.67,25.09,73.37,48.47a123,123,0,0,1,26.34,52.43c.12.53.35,1,.84,2.45C477,442,485.17,429.9,493.5,417.92ZM383.18,510.44c2.51-2.47,2.78-4.44,1.22-7.55q-23.07-45.76-68.8-68.78c-3.12-1.57-5.1-1.2-7.56,1.27-19.58,19.71-39.13,39.47-59.05,58.85-11.69,11.38-23.21,22.92-34.92,34.28-2.59,2.51-3,4.08-.27,7,13.72,14.79,27,30,41.66,43.87,9.45,8.9,19.18,17.51,28.69,26.35,2.14,2,3.22.77,4.72-.73q23.7-23.81,47.49-47.54l-.16-.16C351.84,541.67,367.44,526,383.18,510.44ZM289.48,625a4.76,4.76,0,0,0,1.79-2.72c.26-2.45,1.44-5.58-.66-7-1.64-1.15-3.53,1.59-5,2.85-10.11,9-20.18,18.06-30,27.33-10.22,9.59-21.32,13.15-34.8,7.05-26.88-12.16-46-31.69-56.48-59.26-4.15-10.9-.06-20.35,7.25-28.59,10-11.26,20.13-22.4,30.17-33.62.78-.87,2.38-1.64,1.77-3s-2.38-1.09-3.73-1.14a8.29,8.29,0,0,0-6.41,2.29Q169,552.51,144.43,575.71a8.78,8.78,0,0,0-3,8c2.24,20.72,9.43,39.4,22.57,55.69,18.07,22.41,41.93,34,70.1,37.58,3.73.48,6.69-.25,9.16-3.3a83.06,83.06,0,0,1,6.11-6.2C262.82,653.41,275.62,638.7,289.48,625ZM171.66,567.55c-7.24,8.29-9.1,17.64-4.52,28.07,11.59,26.42,30.59,45.25,57.25,56.25,10.4,4.3,19.55,1.28,27.56-5.79,11.58-10.23,22.94-20.72,34.48-31,2.29-2,2-3.4-.16-5.27-16.5-14.27-32.83-28.76-47.76-44.68-10.1-10.76-20.5-21.27-29.73-32.81-2.69-3.36-4.34-1.38-7,1.76C192.31,544.55,181.83,555.91,171.66,567.55Zm198.9-213.77c-5.72-1.68-9.41-.08-13.35,3.39-8.9,7.82-15.79,17.35-22.95,26.64-6.75,8.74-13.15,17.74-19.89,26.5-1.72,2.23-1.34,3,1.05,4.13a181.88,181.88,0,0,1,54.63,39.06,176.48,176.48,0,0,1,33.46,48.58c1.63,3.52,2.8,3.79,5.78,1.39,15.81-12.7,32.84-23.86,47.67-37.78,2.8-2.63,5.08-5.82,7.57-8.77a5.34,5.34,0,0,0,1-5.05,122.35,122.35,0,0,0-23.45-48,151.22,151.22,0,0,0-12.92-14A129.35,129.35,0,0,0,370.56,353.78Zm-56.2,62.13c-2.43-1.15-3.93-1.12-5.51,1.2a60.3,60.3,0,0,1-5.25,6.38c-1.91,2.08-.94,2.91,1.18,3.77a167.1,167.1,0,0,1,36.67,20.67c18.23,13.47,32,30.59,42.62,50.47a111.77,111.77,0,0,1,7.19,15.36c.91,2.57,2.09,3.08,4,.93a13.59,13.59,0,0,1,1.53-1.4c8.33-6.81,8.18-4.44,2.89-14.88a178.5,178.5,0,0,0-33.5-46A184.74,184.74,0,0,0,314.36,415.91Zm-128.79,81.4C174,508.9,161.25,519.44,153.3,534.24c-3.13,5.83-6.87,11.32-10.12,17.08-4.47,7.92-7.31,16.36-7.44,25.56,0,1.06-.49,2.49.72,3s1.88-.91,2.59-1.65c11.36-11.89,23.74-22.71,35.72-34,4.94-4.64,9-9.34,11.27-15.83,2.22-6.25,6.4-11.55,10.32-16.89,2.9-3.94,2.93-4-1.72-4.76-.41-.06-.82-.11-1.23-.19-7.29-1.37-7.35-1.47-5.61-10.68A14.6,14.6,0,0,0,185.57,497.31Zm126.08,126c-.56-3.57-1.41-3.77-4.2-1.65-7.27,5.51-14.88,10.51-23.67,13.4-3.89,1.28-6.14,4.66-8.67,7.49-10.95,12.26-22.1,24.32-33.77,35.89-1,1-2.43,1.83-2.87,3.71a23.68,23.68,0,0,0,9.78-.08,62.8,62.8,0,0,0,21.19-8c16.88-9.82,33.23-20.29,46.15-35.28,1.17-1.36,2.43-2.64,3.59-4s2.24-2.79,3.75-4.68C313.48,632.9,313.13,632.78,311.65,623.34ZM422.1,286.41c-5.41,1.67-10.65,4-16.15,5.19-8.71,1.8-15.2,7-21.46,12.62-9.55,8.6-18.88,17.54-26.45,27.91A154.78,154.78,0,0,1,344.24,348c-1.11,1.15.32,8.9,1.76,9.54,1,.46,1.82-.43,2.61-.86,3.4-1.84,6.73-3.8,10.11-5.66a5.89,5.89,0,0,0,2.69-2.48c4.86-9.93,12.6-17.31,21.07-24.07,12.28-9.8,23.91-20.41,36.6-29.7,4.42-3.23,9.05-6.19,14.6-10A33.29,33.29,0,0,0,422.1,286.41Zm95.25,121.25c-10,12-19.75,24.11-29.79,36A50,50,0,0,1,473.37,455c-3.67,2-6.46,4.61-7.93,8.58a17.74,17.74,0,0,1-1.56,2.91c-3.41,5.76-3.36,5.64,2.63,8.51,1.68.81,2.55.45,3.5-.74,6.22-7.79,15.26-12.17,22.49-18.71,10.64-9.63,21.28-19.33,29.37-31.31,5.18-7.67,6-17.13,9.45-25.51a27.19,27.19,0,0,0,2-12.61C528,393.38,523.07,400.79,517.35,407.66Zm-23.78,25.9q12.46-15.19,24.9-30.4A139.38,139.38,0,0,0,532,383.35,7.82,7.82,0,0,0,533,378.2c-1.31-9.38-5.19-18.33-4.77-28.31-10.56,39.12-33.85,71-56.53,103.35C481.06,448.94,487.29,441.21,493.57,433.56ZM470.05,290c-10.49.76-20.08-3.2-30.08-4.65a7,7,0,0,0-4.74,1,211.14,211.14,0,0,0-31.34,22.91c-8,6.93-16.29,13.62-24.51,20.34a56.43,56.43,0,0,0-14.29,16.94C398,323.72,430.27,300.13,470.05,290Zm-169,322.58C323.65,590,346,567.19,368.88,545c14-13.54,29.3-25.58,44.77-37.42,13.48-10.31,26.68-21,40-31.46,5.49-4.32,8.56-10.31,11.89-16.88-14,16.62-32,27.49-48.24,40.4-10.38,8.23-20.84,16.35-30.63,25.3-15.28,14-30.77,27.72-46.08,41.66-7.66,7-15.12,14.16-22.67,21.25-6.94,6.53-13.93,13-20.8,19.61-5,4.83-4.95,4.9-3.13,12.63C297.15,618.26,298.68,615,301.08,612.62ZM211.92,520.1c7.33-9,15.93-16.87,23.94-25.26,16.49-17.3,32.37-35.15,48.59-52.7A661.17,661.17,0,0,0,332,383.76c7.5-10.23,15-20.55,24.5-29.2-4.73,2.82-9.92,4.7-13.51,9.34-13.18,17-26.63,33.83-39.82,50.84-27.45,35.4-60.15,65.84-91.74,97.33-2.15,2.14-4.63,3.94-6.86,6s-4.1,4.06-6.26,6.22C204.61,527.24,208.13,524.74,211.92,520.1Zm80.26,84.17c-.79.78-1.57,1.56-2.33,2.37s-1.55,1.78-.55,2.88c1.17,1.27,2.25.49,3.22-.39,4.1-3.7,8.39-7.22,12.24-11.17,15-15.32,31.15-29.43,46.81-44,12.32-11.49,25.11-22.47,37.72-33.64,1.18-1,1.75-2.14,1.11-3.63-1-2.24-1.17-5-3.28-6.48-1-.7-2,1.13-2.82,2q-23.37,23.28-46.67,46.63l0,0Zm14.41-170c2.34-2.29,2.62-3.44-.82-4.73-5.74-2.14-5.54-2.17-9.77,2.66-7.57,8.61-15.19,17.17-23,25.54-19.71,21.09-38.89,42.69-59.31,63.12a67.46,67.46,0,0,0-4.74,5.76c-.54.69-.86,1.49-.12,2.22s1.54.43,2.23-.11a26.43,26.43,0,0,0,2.14-2q17-17,34.07-34l34-34,.36.37C289.93,450.82,298.19,442.45,306.59,434.24ZM321,606.45c14.85-11.93,28.8-24.9,43.17-37.39,2.6-2.26,4.91-4.86,7.38-7.27,1.74-1.69,1.24-2.53-1-2.84a1.24,1.24,0,0,1-.4-.09c-6.56-3.35-11.1-1.1-16,4.13-11.09,11.94-23,23.13-34.42,34.76-7.84,8-15.45,16.18-23.16,24.29a8.56,8.56,0,0,0-2.37,4C304.31,620.49,312.49,613.27,321,606.45ZM198.08,520.54l54.19-53.11c1.18-1.16,2.23-2.47,3.5-3.53,5.27-4.41,6.68-9.57,3.77-16-.92-2-1.36-2.49-2.94-.78-6.74,7.32-13.64,14.48-20.22,21.93q-13,14.76-25.59,29.87c-6.62,7.9-13.19,15.87-18.55,25.55A13.8,13.8,0,0,0,198.08,520.54Zm134.1,97.54a9.82,9.82,0,0,1-3.63,2.7c-.67.27-1.41.5-1.82-.21a1.87,1.87,0,0,1,.17-1.53,16.36,16.36,0,0,1,1.92-2.68c3.3-3.71,6.61-7.41,10-11.05,1.36-1.48,2.54-3.41,5.12-2.8.77.18,1.28-.41,1.68-1,9.17-12.95,21.5-22.93,32.29-34.35,3.32-3.52,6.84-6.84,10.21-10.3.68-.7,2.19-1.37,1.22-2.64a3.11,3.11,0,0,0-3.43-.85,5.33,5.33,0,0,0-2,1.38c-10.5,10.59-21.78,20.34-32.77,30.4-11.2,10.24-22.37,20.53-34.61,29.49-4.16,3-3.71,6.17-2.88,10,1.27,6,1.79,6.11,7.36,4,7.64-2.89,11.44-9.66,16.21-15.47.79-1,1.43-2,2.14-3l-.17-.24C336.84,612.65,334.53,615.39,332.18,618.08ZM194.56,489.74c-3.57,3-4.76,7.32-6,11.59a2.15,2.15,0,0,0,.27,1.56c1.58,2.5,11.43,3.15,13.28.82,19-23.95,39.7-46.37,60.93-68.31a20.73,20.73,0,0,0,1.61-1.9,3,3,0,0,0-.33-4.15c-1.36-1.25-2.15.52-2.91,1.27q-12,11.81-23.83,23.7A239.91,239.91,0,0,1,218,472.13c-.43.34-1,.68-1.17,1.15-2.9,8.59-11.25,11.94-17,17.78-.57.58-1.36,1.27-2.1.4s-.06-1.63.39-2.28a29.51,29.51,0,0,1,6.77-6.66A15.89,15.89,0,0,0,209.5,478C204.51,481.88,199.44,485.69,194.56,489.74ZM327.41,378.06c-3.35,2.76-6.15,4.82-8.67,7.18-14.8,13.87-29.56,27.77-43.64,42.38-4.83,5-2.51,11.08-2.63,17.68C282.38,436.61,322,388.2,327.41,378.06Zm45.9,167.61c6.72.57,12.46,2.09,17.74-2.8,8-7.42,15.68-15.15,23.06-23.21,8.66-9.47,18.07-18.25,26-28.46C417.07,507.85,394.35,525,373.31,545.67ZM406,536.16a12.35,12.35,0,0,1,6.87-5c1.72-.45,2.79-1.73,4-2.88,6.35-6.34,12.4-13,19.15-18.91,4.66-4.07,6.8-9.45,9.8-14.42.53-.88.9-1.88-.19-2.54s-1.85.16-2.49.89c-3.29,3.71-6.45,7.54-9.83,11.18-13.42,14.44-26.4,29.32-41.24,42.39-1.33,1.17-4.53,2.46-2.74,4.55,2.22,2.58,4.4.09,6.93-2.63C397.21,543.81,402.59,540.77,406,536.16ZM324.68,375.59c.88-.79,2.53-1.38,1.34-2.86s-2.31-.12-3.57.42c-11,4.75-17.35,14.94-26,22.38-7.17,6.14-11.35,14.8-18.37,21.12-2.92,2.63-6.68,3.8-9.29,6.65a28.65,28.65,0,0,0-2.22,2.46,2.23,2.23,0,0,0,.22,3c1.22,1.27,2,0,2.7-.74,4.52-4.46,9-9,13.49-13.46C296.38,401.09,310.56,388.36,324.68,375.59Zm213.57,6.62a121.06,121.06,0,0,0-7-29.39c-.89,3-.86,4.7.24,9.72.88,4,1.75,8.08,2.72,12.1,2.34,9.71,1.42,19.15-2.94,29.37C538.22,397.35,539.07,390,538.25,382.21Zm-85.66-96a43.87,43.87,0,0,0,13.19,1.69c-6.44-4-23.72-7.63-35.45-7.86-5.8-.11-10.37,2.15-14.37,6.23C428.25,280.79,440.4,283,452.59,286.18Zm-4.72,215.44c-.61.84-.26,1.87.09,2.78,1.2,3.07,2.36,6.15,3.64,9.19.35.82.58,2,1.75,2.07s1.81-1.11,2.46-2a3,3,0,0,0,.61-1.51A60.66,60.66,0,0,0,455.07,492C452.36,495.58,450.07,498.57,447.87,501.62ZM307.68,362a5.49,5.49,0,0,0-3.43,1.24c-1.67,1.4-2.06,2.61.34,3.58l9.6,3.81a3.42,3.42,0,0,0,4.13-.91c2.34-2.58,5.34-4.28,9.18-6.37A85.58,85.58,0,0,0,307.68,362Zm-46.24,79.91c-1.2,1.51.29,10.64,1.78,11.75a1.59,1.59,0,0,0,1.08.28c1.67-.21,6.64-6.56,6.53-8.4-.13-2.05-.49-4.1-.55-6.16s.13-4.05.23-6.7A52,52,0,0,0,261.44,441.88ZM364.31,554.76c9,4.78,13.52,3.4,20.13-6.44C376.61,547.77,368.6,545.71,364.31,554.76ZM340.48,361.45c1.79-.37,3.14-1.18,3.12-3.18a6.59,6.59,0,0,0-2.29-5.48c-.95-.74-1.82-.06-2.51.63-2.6,2.56-5.17,5.15-8.3,8.28A26.49,26.49,0,0,0,340.48,361.45ZM465.17,479.11c1-1,1.06-1.95-.1-2.75a7.5,7.5,0,0,0-5.83-1.55c-2.07.43-2.12,2.4-2.37,4-.38,2.42-.9,4.88.26,8.36C460.15,484.12,462.64,481.6,465.17,479.11Z" style="fill:#333"/><path d="M268.12,618.06c2.29,2.26,2.7,4,.2,6.52a186.08,186.08,0,0,1-26.24,22.8,18.84,18.84,0,0,1-18.88,2.11,81.87,81.87,0,0,1-18.67-10.65c-15.18-11.38-27.39-25.23-35.22-42.68-3.31-7.38-2.34-14.47,2.32-20.8a276.75,276.75,0,0,1,21-24.55c3.7-4,4.32-3.88,8.3.09q16.59,16.56,33.15,33.15C245.41,595.4,256.72,606.77,268.12,618.06Zm-68-65.33c-2.48-2.53-4.21-2.94-6.66-.08-7,8.16-14.62,15.84-20.84,24.65-3.83,5.42-4.64,11.51-1.73,17.7,11.1,23.64,28.52,41.06,52,52.37a17.09,17.09,0,0,0,18.76-1.88,226.48,226.48,0,0,0,24.06-20.9c2.52-2.53,2.08-4.17-.24-6.46-11-10.87-21.93-21.86-32.88-32.8S210.85,563.69,200.11,552.73Z" style="fill:#333"/><path d="M457.34,448.42c2.31,6.88.35,12.41-4.63,16.82-13.43,11.88-27.25,23.33-41.56,34.15-3.52,2.66-4.68,2.36-6.58-1.58-7.21-15-15.7-29.14-27.18-41.33-1.4-1.49-2.53-3.15-1.32-5.18,1.71-2.87.11-4.6-1.83-6.36s-3.53-4.55-6.95-2.7c-2,1.09-3.69.37-5.24-1.09-12.19-11.49-26.32-20-41.34-27.2-4-1.92-4.29-2.86-1.58-6.52,10.51-14.2,21.94-27.66,33.4-41.08,4.91-5.74,11.11-7.6,18.67-5a145.53,145.53,0,0,1,53.72,32.84A143,143,0,0,1,457.34,448.42Zm-85.77-84.87c-8.6-3-13.62-1.3-19.55,6q-15.22,18.82-30.61,37.51c-2.28,2.77-2,4.26,1.37,5.83a161.21,161.21,0,0,1,40.36,26.48c1.44,1.3,2.78,1.63,4.47.7,2.32-1.29,4.18-.58,5.86,1.31,2.77,3.14,7.53,5.4,4.31,11-.61,1.05.5,2,1.24,2.86A163.53,163.53,0,0,1,405.69,496c1.42,3,2.91,3.2,5.27,1.29,9.11-7.38,18.38-14.58,27.29-22.19,5.52-4.73,11.69-8.79,16.1-14.78a10.2,10.2,0,0,0,1.67-9.75,130.71,130.71,0,0,0-84.45-87Z" style="fill:#333"/></g></svg>