<?xml version="1.0" encoding="utf-8"?>
<!-- Generator: Adobe Illustrator 22.0.1, SVG Export Plug-In . SVG Version: 6.00 Build 0)  -->
<svg version="1.1" id="Landing" xmlns="http://www.w3.org/2000/svg" xmlns:xlink="http://www.w3.org/1999/xlink" x="0px" y="0px"
	 viewBox="0 0 197.7 19.7" style="enable-background:new 0 0 197.7 19.7;" xml:space="preserve">
<style type="text/css">
	.st0{fill:#E6E6E6;}
	.st1{font-family:'Merriweather-Regular';}
	.st2{font-size:12px;}
</style>
<g id="Nav">
	<path class="st0" d="M163.9,13c-0.6,0-0.6,0-0.6-0.6c0-0.5,0-1.1-0.1-1.6c-0.2-1.5-1.3-2.7-2.7-3c-1.5-0.4-3.1,0.1-4,1.4
		c-0.6,0.9-0.9,2-0.8,3.1c0,0.4-0.1,0.5-0.5,0.4l-2.8-0.4c-0.8-0.1-1.4-0.7-1.5-1.5c-0.1-0.4-0.2-0.9-0.2-1.3
		c-0.1-0.3,0-0.6,0.2-0.8c0.1-0.1,0.2-0.2,0.2-0.4c0-0.5,0.2-1.1,0.3-1.6c0-0.1,0.1-0.2,0-0.2s-0.2-0.3-0.1-0.5
		c0.2-0.4,0.2-0.9,0-1.3c-0.1-0.2,0-0.3,0.2-0.3c0.3,0,0.5-0.1,0.8-0.1c1.7-0.4,3.3-1.1,4.9-1.7c3.4-1.2,7-1.9,10.7-1.9
		c1.7,0,3.5,0,5.2,0.2c1.9,0.2,3.8,0.7,5.6,1.4c2.1,0.9,4.1,1.9,6,3c0.1,0.1,0.3,0.1,0.4,0.2c1.1,0,2.2,0.2,3.3,0.4
		c1.6,0.3,3.2,0.7,4.7,1.3c0.8,0.3,1.6,0.7,2.4,1.1c0.2,0.1,0.4,0.4,0.4,0.6c-0.1,0.5-0.1,0.9-0.1,1.4c0.1,0.6,0.1,1.1-0.6,1.2l0,0
		c-0.1,0.1-0.3,0.2-0.2,0.4s0.2,0.1,0.3,0.1l0.2,0.1c0.1,0,0.3,0,0.3,0.2s-0.2,0.2-0.3,0.3c-1,0.4-2.1,0.6-3.1,0.6
		c-0.6,0-0.6,0-0.5-0.6c0.1-0.8,0.1-1.7-0.2-2.4c-0.5-1.4-1.7-2.4-3.2-2.5C187,7.3,185.7,8,185,9.2c-0.5,0.9-0.8,1.8-0.7,2.9
		c0,1.1,0.1,1-1,1L163.9,13L163.9,13z M177.9,5.2c0.2,0,0.4,0,0.4-0.3s0.3-0.6,0.7-0.7c0.1,0,0.2,0,0.2-0.1s-0.1-0.3-0.2-0.3
		l-0.8-0.4c-2.1-0.9-4.3-1.5-6.5-1.7c-0.4,0-0.8-0.1-1.2-0.1c-0.2,0-0.3,0-0.2,0.2c0.4,0.9,0.7,1.9,1,2.8c0.1,0.2,0.3,0.3,0.4,0.3
		c1.3,0.1,2.6,0.2,3.8,0.2c0.6,0,1.2,0.1,1.9,0.1l0,0C177.6,5.2,177.8,5.2,177.9,5.2L177.9,5.2z M169.7,4.3
		c-0.2-0.8-0.4-1.7-0.6-2.5c-0.1-0.3-0.2-0.4-0.5-0.4c-1.7,0-3.4,0.2-5,0.5l-1.5,0.3c-0.2,0-0.3,0.1-0.2,0.3
		c0.1,0.5,0.2,0.9,0.3,1.3c0,0.2,0.2,0.4,0.4,0.3c2.1,0.1,4.1,0.3,6.2,0.4c0.2,0,0.4,0,0.5,0.1C169.8,4.8,169.8,4.7,169.7,4.3
		L169.7,4.3z M175,1.3c0.9,0.3,1.9,0.6,2.8,1c1.8,0.7,3.5,1.7,5.3,2.6c0.4,0.2,0.9,0.3,1.4,0.3C181.5,3.5,178.3,2.2,175,1.3L175,1.3
		z M162,3.9c-0.1-0.4-0.2-0.8-0.2-1.2c0-0.2-0.1-0.3-0.3-0.2l-2.7,0.8c-0.1,0-0.1,0-0.1,0.1s0.1,0.1,0.2,0.2c0.6,0.3,1.3,0.5,2,0.6
		c0.3,0,0.6,0,0.9,0.1S162,4.2,162,3.9z M190.3,6.4c1,0.9,2.3,1.4,3.6,1.5C192.8,7.2,191.5,6.7,190.3,6.4L190.3,6.4z"/>
	<g>
		<path class="st0" d="M159.5,9.6L159.5,9.6c0,0,0.1,0,0.1,0c1,0.1,1.7,0.8,1.6,1.7c-0.1,0.9-0.7,1.6-1.6,1.6c0,0-0.1,0-0.1,0l0,0h0
			h-0.1c-0.4,0-0.8-0.2-1.1-0.6c-0.3-0.3-0.4-0.7-0.4-1.1C158,10.3,158.7,9.6,159.5,9.6 M159.5,8.4c-1.5,0-2.7,1.2-2.8,2.7
			c-0.1,1.5,1.1,2.8,2.6,2.9h0.1c0.1,0,0.1,0,0.2,0c1.5,0,2.7-1.2,2.8-2.7c0.1-1.6-1.2-2.8-2.7-2.9C159.6,8.4,159.6,8.4,159.5,8.4
			L159.5,8.4z"/>
	</g>
	<g>
		<path class="st0" d="M188.1,9.6c0.9,0,1.6,0.7,1.6,1.6s-0.7,1.6-1.6,1.6s-1.6-0.7-1.6-1.6S187.2,9.6,188.1,9.6 M188.1,8.4
			c-1.6,0-2.8,1.3-2.8,2.8s1.3,2.8,2.8,2.8s2.8-1.3,2.8-2.8S189.7,8.4,188.1,8.4L188.1,8.4z"/>
	</g>
	<text transform="matrix(1 0 0 1 0.18 11.63)" class="st0 st1 st2">International Car Sales</text>
</g>
</svg>
