<svg id="Landing" xmlns="http://www.w3.org/2000/svg" viewBox="0 0 341.04 70.12"><title>ysdn3006-p1-visualcomp-webflow [Recovered]</title><path d="M21.43,49.52a56.26,56.26,0,0,1-1.15-12.05q0-11.47,2.93-17.18t8.24-5.71c2.79,0,4.7.53,5.75,1.59l3,13H50.36L51.42,10C50.84,10,50,10,49,9.84l-3.28-.41c-2.84-.37-5.27-.65-7.3-.86a61.15,61.15,0,0,0-6.29-.32,33,33,0,0,0-15.57,3.59A25.72,25.72,0,0,0,5.89,22.31,33,33,0,0,0,2,38.69,39.34,39.34,0,0,0,3.45,49.52" style="fill:none;stroke:#4d4d4d;stroke-linecap:round;stroke-miterlimit:10"/><path d="M84.57,49.52V39.64a8.07,8.07,0,0,1,2.89-1.31,16.12,16.12,0,0,1,4.3-.54,11.39,11.39,0,0,1,4.39.7,13.13,13.13,0,0,1,3.19,1.93V24A4.15,4.15,0,0,0,98,23.45a10.09,10.09,0,0,0-2.09-.2A12.32,12.32,0,0,0,89.45,25a17,17,0,0,0-4.9,4.34,12.91,12.91,0,0,0-2.44,4.78H81.8l.27-6.83V25.13l-2.58-1.84H79.3L64.88,25.21V32.4l4.26,1.52v15.6" style="fill:none;stroke:#4d4d4d;stroke-linecap:round;stroke-miterlimit:10"/><path d="M127.2,49.52a28.41,28.41,0,0,1-.49-3.22h23.91a38,38,0,0,0,.74-7.92q-.12-7.2-4.73-11.16t-13.43-4a25.59,25.59,0,0,0-11.92,2.61,18,18,0,0,0-7.75,7.63,25.45,25.45,0,0,0-2.72,12.22,35.68,35.68,0,0,0,.22,3.81M127.3,33.47a5.91,5.91,0,0,1,1.89-3.27,5.09,5.09,0,0,1,3-.85,3.56,3.56,0,0,1,3.52,2.08,15.39,15.39,0,0,1,1,6.26l0,2.79H126.56A27.18,27.18,0,0,1,127.3,33.47Z" style="fill:none;stroke:#4d4d4d;stroke-linecap:round;stroke-miterlimit:10"/><path d="M206.7,5.44l-2.81-2.19h-.39L184.13,4.93v5.9l7.46,1.25V23.65a19.86,19.86,0,0,0-3.4-.4,26.5,26.5,0,0,0-13.5,3.22A20.73,20.73,0,0,0,166.43,35a25.13,25.13,0,0,0-2.73,11.61,28.45,28.45,0,0,0,2.2,12,15,15,0,0,0,6.1,7,17.75,17.75,0,0,0,9,2.23A16,16,0,0,0,188.15,66a12.49,12.49,0,0,0,5.35-4.8V63a5.71,5.71,0,0,0,.63,3A3.2,3.2,0,0,0,196,67.4a12.08,12.08,0,0,0,3.42.39,50.56,50.56,0,0,0,5.53-.37q3.18-.37,5.6-.81V60.76H206.7ZM191.59,57.5a6.17,6.17,0,0,1-5.08,2.16c-2.08,0-3.7-1.14-4.84-3.43S180,50.4,180,45.6c0-5.87.71-10,2.14-12.51s3.34-3.7,5.71-3.7a5.65,5.65,0,0,1,2.28.44A3.43,3.43,0,0,1,191.59,31Z" style="fill:none;stroke:#4d4d4d;stroke-linecap:round;stroke-miterlimit:10"/><polygon points="243.18 24 240.53 22.16 240.33 22.16 222.52 24.31 222.52 31.22 227.63 32.79 227.63 61.03 223.26 61.81 223.26 67.75 247.32 67.75 247.32 61.81 243.18 61.03 243.18 24" style="fill:none;stroke:#4d4d4d;stroke-linecap:round;stroke-miterlimit:10"/><path d="M229.29,16a8.64,8.64,0,0,0,4.05.94h0a10.35,10.35,0,0,0,5-1.12,7.4,7.4,0,0,0,3.08-3,9.19,9.19,0,0,0,1-4.4,7.32,7.32,0,0,0-1-3.73A6.73,6.73,0,0,0,238.75,2a9.78,9.78,0,0,0-4.48-.95h0a9.18,9.18,0,0,0-4.65,1.13,7.67,7.67,0,0,0-3.05,3.11,9.19,9.19,0,0,0-1,4.39,6.92,6.92,0,0,0,1,3.69A7.13,7.13,0,0,0,229.29,16Z" style="fill:none;stroke:#4d4d4d;stroke-linecap:round;stroke-miterlimit:10"/><path d="M288.45,57.59c-1.18.29-2.22.51-3.15.68a17.68,17.68,0,0,1-3,.25h0A3.72,3.72,0,0,1,280,58a3.37,3.37,0,0,1-.86-2.21,56,56,0,0,1-.21-5.93V30.6h10.35V23.29H278.76l-.59-12.85h-8.79a65.4,65.4,0,0,1-2.77,8,16.07,16.07,0,0,1-2.77,4.67c-.11.06-.34.17-.71.33l-1.36.61-1.9.85a5.25,5.25,0,0,0-1.15.57V30.6h4.49V57.67q0,5,2.64,7.56c1.76,1.7,4.5,2.56,8.22,2.56h.08a31.83,31.83,0,0,0,9.37-1.35,20.71,20.71,0,0,0,6.88-3.31l-1.91-5.54Z" style="fill:none;stroke:#4d4d4d;stroke-linecap:round;stroke-miterlimit:10"/><path d="M337.46,48.24a15.84,15.84,0,0,0-4.8-4.41,54.42,54.42,0,0,0-7-3.44l-1.57-.67c-1.95-.8-3.48-1.47-4.59-2a9.72,9.72,0,0,1-2.73-2,3.75,3.75,0,0,1-1.07-2.65,3.49,3.49,0,0,1,1.5-3,7,7,0,0,1,4.2-1.09,9.93,9.93,0,0,1,3,.4,3.19,3.19,0,0,1,1.62.91l2.26,4.74h8.36V23.68q-1.29,0-3.75-.12c-2-.09-4-.17-5.88-.22s-4.13-.09-6.73-.09A27.83,27.83,0,0,0,310,25a14.36,14.36,0,0,0-6.44,4.61,10.69,10.69,0,0,0-2.17,6.54,12.49,12.49,0,0,0,2.5,7.93,19.9,19.9,0,0,0,7.22,5.47q2.48,1.16,4.69,2.12,2.94,1.23,4.53,2.05a9.53,9.53,0,0,1,2.62,1.88A3.41,3.41,0,0,1,324,58a3.55,3.55,0,0,1-1.49,2.88,6.47,6.47,0,0,1-4.1,1.17,11.08,11.08,0,0,1-3.52-.6,4,4,0,0,1-2.22-1.35l-2.27-6.32H301.6V64.66a31,31,0,0,1,3.44.82,71.13,71.13,0,0,0,7,1.68,44,44,0,0,0,7.93.63A29.15,29.15,0,0,0,331,66a13.61,13.61,0,0,0,6.34-4.76,11.46,11.46,0,0,0,2-6.54A10.79,10.79,0,0,0,337.46,48.24Z" style="fill:none;stroke:#4d4d4d;stroke-linecap:round;stroke-miterlimit:10"/></svg>