<svg id="Landing" xmlns="http://www.w3.org/2000/svg" viewBox="0 0 119.5 46.61"><title>ysdn3006-p1-visualcomp-webflow</title><path d="M102.48,41.08a4.83,4.83,0,0,1-3.83-1.59,5.26,5.26,0,0,1-1-4.37,7.19,7.19,0,0,0-.28-3.6,4.32,4.32,0,0,0-4-3.07,5.59,5.59,0,0,0-.68-.05c-.92,0-2,.24-3.11,2a7.58,7.58,0,0,0-1.08,4.28c0,.25,0,.48,0,.67a5.25,5.25,0,0,1-1.28,4.16,4.92,4.92,0,0,1-3.69,1.38H38.49a5.23,5.23,0,0,1-4.07-1.37,5.17,5.17,0,0,1-1.3-4.05A20.22,20.22,0,0,0,33,32.37a3.94,3.94,0,0,0-3.19-3.46,5.17,5.17,0,0,0-1.23-.15,4.15,4.15,0,0,0-3.44,1.66,8,8,0,0,0-1.2,4.79,5,5,0,0,1-1.34,3.69,4.5,4.5,0,0,1-3.27,1.3,6.92,6.92,0,0,1-1-.08l-6.4-.86a8.15,8.15,0,0,1-6.94-6.85c-.08-.64-.22-1.31-.36-2l-.14-.72A5.86,5.86,0,0,1,5.34,25a11.25,11.25,0,0,1,.46-2,4.75,4.75,0,0,1,.28-3.62,4.46,4.46,0,0,1,.26-3.89,4.55,4.55,0,0,1,3.85-2.21,6.05,6.05,0,0,0,1-.18,79.39,79.39,0,0,0,8.08-2.74l2.63-1A76.79,76.79,0,0,1,47.25,4.89l2.4,0a85.83,85.83,0,0,1,10,.54A53.11,53.11,0,0,1,73.34,8.89a119.24,119.24,0,0,1,13.79,6.75,36.08,36.08,0,0,1,5.27.61l2,.32a57.82,57.82,0,0,1,11.41,3.14A33.54,33.54,0,0,1,112,22.58a5.39,5.39,0,0,1,2.7,5.23l-.09.87a6.92,6.92,0,0,0-.09,1.32,8.18,8.18,0,0,1-.21,3.6,4.57,4.57,0,0,1,.22.94,4.44,4.44,0,0,1-3.24,4.85A27.38,27.38,0,0,1,103,41.07Z" style="fill:#1e1e1e"/><path d="M49.65,8.86a81.4,81.4,0,0,1,9.48.52,48.27,48.27,0,0,1,12.7,3.22,115.64,115.64,0,0,1,13.64,6.7,1.79,1.79,0,0,0,.88.34h.33a52.23,52.23,0,0,1,7.17.9,54.76,54.76,0,0,1,10.68,3,29.06,29.06,0,0,1,5.4,2.5,1.43,1.43,0,0,1,.78,1.46,14,14,0,0,0-.15,3.09c.19,1.36.21,2.45-1.45,2.76,0,0,0,0-.07.06-.28.24-.57.52-.48.89s.23.25.42.25h.16a.58.58,0,0,1,.19,0c.17,0,.34.06.52.11s.67,0,.71.4-.36.49-.65.6a23.12,23.12,0,0,1-7.11,1.43h-.32c-1,0-1-.25-.88-1.4a11.36,11.36,0,0,0-.47-5.52,8.33,8.33,0,0,0-7.21-5.68,10.24,10.24,0,0,0-1.21-.08,7.37,7.37,0,0,0-6.5,3.91,11.55,11.55,0,0,0-1.69,6.44c0,2,.23,2.16-1,2.16H38.49c-1.39,0-1.39,0-1.37-1.36A23.17,23.17,0,0,0,37,31.82,7.93,7.93,0,0,0,30.78,25a9.34,9.34,0,0,0-2.21-.27,8.12,8.12,0,0,0-6.72,3.37,11.93,11.93,0,0,0-1.92,7.09c0,.75-.1,1-.61,1-.13,0-.3,0-.5,0l-6.42-.87a4.17,4.17,0,0,1-3.49-3.4c-.14-1-.35-2-.54-3A2,2,0,0,1,8.8,27.1c.21-.23.5-.55.48-.82-.08-1.29.55-2.41.76-3.62,0-.18.34-.39-.08-.57-.58-.25-.41-.71-.19-1.12a3,3,0,0,0,.1-2.89c-.29-.58,0-.76.52-.79a8.83,8.83,0,0,0,1.84-.3c3.79-1,7.41-2.49,11.08-3.84a73.46,73.46,0,0,1,24-4.26c.77,0,1.55,0,2.32,0m0-8c-.83,0-1.66,0-2.48,0A80.88,80.88,0,0,0,20.55,5.64l-2.67,1a77.21,77.21,0,0,1-7.66,2.61L10,9.31a8.38,8.38,0,0,0-8,9.9,8.51,8.51,0,0,0-.23,3.72q-.07.33-.15.69a10,10,0,0,0-1,6.8l.15.74c.13.65.25,1.26.32,1.78A12.19,12.19,0,0,0,11.36,43.23c2.13.27,4.26.56,6.38.85a11.73,11.73,0,0,0,1.58.12,8.52,8.52,0,0,0,6.1-2.48,8.83,8.83,0,0,0,2.51-6.52,4.45,4.45,0,0,1,.43-2.42l.21,0,.26,0,.18.06a.15.15,0,0,1,0,.07,15.9,15.9,0,0,1,.1,2.48,8.68,8.68,0,0,0,9.37,9.5H83.57a8.77,8.77,0,0,0,6.56-2.59,9.19,9.19,0,0,0,2.4-7.06c0-.18,0-.38,0-.61A3.68,3.68,0,0,1,93,32.53l.06-.09a1.81,1.81,0,0,1,.39.11,1.54,1.54,0,0,1,.15.33,3.55,3.55,0,0,1,.08,1.67,9.16,9.16,0,0,0,1.94,7.56,8.76,8.76,0,0,0,6.86,3l.62,0a31.43,31.43,0,0,0,9.49-1.88,8.43,8.43,0,0,0,5.91-9.13c0-.15,0-.3-.07-.45a12.64,12.64,0,0,0,.09-3.87c0-.16,0-.41.06-.6s.07-.65.1-1a9.37,9.37,0,0,0-4.6-9A35.94,35.94,0,0,0,107.19,16l0,0a61,61,0,0,0-12.2-3.34c-.63-.08-1.25-.19-1.88-.29a43.88,43.88,0,0,0-4.8-.63A120.19,120.19,0,0,0,74.84,5.19,56.82,56.82,0,0,0,60.07,1.43,89.59,89.59,0,0,0,49.65.86Z" style="fill:#1e1e1e"/><path d="M28.88,41.63a8.46,8.46,0,0,1-.87-.05,8.69,8.69,0,0,1-8.1-9.16A8.87,8.87,0,0,1,28.57,24a8.91,8.91,0,0,1,8.94,9.13A8.86,8.86,0,0,1,28.88,41.63Z" style="fill:#1e1e1e"/><path d="M28.57,26l.67,0a6.82,6.82,0,0,1-.36,13.61,4.87,4.87,0,0,1-.66,0,6.74,6.74,0,0,1-6.32-7A6.88,6.88,0,0,1,28.57,26m0-4h0a10.88,10.88,0,0,0-10.66,10.3,10.68,10.68,0,0,0,9.92,11.28,9.24,9.24,0,0,0,1.05.06,10.81,10.81,0,0,0,.78-21.58A10,10,0,0,0,28.57,22Z" style="fill:#1e1e1e"/><path d="M92.94,41.51a8.07,8.07,0,0,1-5.73-2.46,8.78,8.78,0,1,1,12.21,0,8,8,0,0,1-5.71,2.46h-.77Z" style="fill:#1e1e1e"/><path d="M93.3,26.06a6.88,6.88,0,0,1,6.79,6.74c0,3.28-2.81,6.71-6.38,6.71h-.77c-3.58,0-6.4-3.4-6.4-6.69a6.88,6.88,0,0,1,6.73-6.76h0m0-4h0a10.71,10.71,0,0,0-7.46,18.4,10.09,10.09,0,0,0,7.15,3h.77a10,10,0,0,0,7.13-3,10.71,10.71,0,0,0-7.54-18.4Z" style="fill:#1e1e1e"/><g id="Car"><path d="M38.41,36.93c-1.39,0-1.39,0-1.37-1.36a23.25,23.25,0,0,0-.17-3.73A8,8,0,0,0,30.69,25a8.36,8.36,0,0,0-8.93,3.1,11.91,11.91,0,0,0-1.92,7.1c0,.95-.16,1.07-1.11.94l-6.43-.86a4.21,4.21,0,0,1-3.5-3.41c-.13-1-.34-2-.53-3a1.9,1.9,0,0,1,.42-1.81c.22-.24.5-.56.49-.82-.09-1.29.54-2.41.76-3.63,0-.18.34-.39-.08-.57-.58-.25-.41-.71-.19-1.12a3,3,0,0,0,.09-2.9c-.29-.57,0-.76.53-.78a9.67,9.67,0,0,0,1.84-.3c3.8-1,7.42-2.5,11.09-3.84a73.33,73.33,0,0,1,24-4.27,86.29,86.29,0,0,1,11.81.49A48.24,48.24,0,0,1,71.78,12.6a113.57,113.57,0,0,1,13.65,6.71,1.8,1.8,0,0,0,.9.34,47.12,47.12,0,0,1,7.49.89,54.19,54.19,0,0,1,10.69,3,28.15,28.15,0,0,1,5.4,2.5,1.4,1.4,0,0,1,.79,1.45,14.09,14.09,0,0,0-.16,3.1c.19,1.36.22,2.46-1.44,2.77,0,0,0,0-.08,0-.27.24-.57.52-.48.89s.5.21.77.27l.52.11c.28.07.67,0,.72.4s-.37.5-.66.6a23.07,23.07,0,0,1-7.11,1.43c-1.26,0-1.38-.12-1.2-1.38a11.27,11.27,0,0,0-.48-5.53,8.28,8.28,0,0,0-7.21-5.68,7.41,7.41,0,0,0-7.72,3.82,11.77,11.77,0,0,0-1.69,6.45c0,2.48.35,2.15-2.17,2.15-7.18,0-14.36,0-21.55,0ZM31.14,19.49c-.07.42.22.64.4.89,2.36,3.2,4.89,6.27,7.34,9.4a2.62,2.62,0,0,0,2.25.8c3.52.23,7,.38,10.57.57.82.05,1.65.1,2.48.17.6.05.86-.16.85-.8,0-2.25,0-4.51-.15-6.76-.05-.53-.25-.72-.76-.74-2.85-.1-5.69-.2-8.54-.34-3.11-.15-6.21-.34-9.32-.52a4,4,0,0,1-.4-.08c0-.34.17-.33.33-.32,3.67.2,7.34.43,11,.61,2.29.11,4.57.15,6.85.24.57,0,.8-.12.69-.77-.45-2.57.1-2.35-2.87-2.55-4.64-.32-9.3-.44-13.93-.84-1.81-.15-3.61-.27-5.4-.55a.78.78,0,0,0-.75.14c-.22.24-.58.49-.51.8s.51.17.78.19l6.2.55c.18,0,.34.05.52.41C36.15,19.89,33.66,19.37,31.14,19.49ZM80,32c.48,0,.66-.2.7-.68.17-2.1.17-4.21.17-6.31,0-.51-.17-.77-.71-.8-1.3-.08-2.59-.22-3.89-.28-4.12-.21-8.23-.38-12.35-.57l-7.46-.34c-1.1-.05-1.23,0-1.14,1.1.18,2.13.15,4.27.15,6.4,0,.58.22.78.79.8,2.84.09,5.68.23,8.53.32q6.41.21,12.8.38v0Zm24.69,1.27c-.19-.78-.35-1.56-.5-2.35-.11-.6.15-.91.78-.86.88.07,1.78.08,2.65.22a.77.77,0,0,0,1-.54c.45-.91.92-1.8,1.41-2.68.14-.24.19-.38,0-.6a1.64,1.64,0,0,0-2.48-.09,1.48,1.48,0,0,1-1.35.18,11.1,11.1,0,0,1-4-1.59,25,25,0,0,1-3.48-2.15c-2.14-1.91-4.82-1.82-7.36-2.27a25.88,25.88,0,0,0-6.09-.49c-2.05.12-3.76-1-5.46-2A70.67,70.67,0,0,0,63.16,11,45.66,45.66,0,0,0,55,9.68c-1.77-.13-3.55-.23-5.33-.19A85.82,85.82,0,0,0,27.5,12.85c-.68.2-1.37.39-2,.61-.16,0-.49,0-.38.36a.4.4,0,0,0,.5.28c.28-.07.57-.13.85-.23a78.33,78.33,0,0,1,16.38-3.61A80.64,80.64,0,0,1,55.24,10c7.45.33,14.26,2.84,20.64,6.58,1,.6,2,1.27,3,1.91a4.93,4.93,0,0,1,2.42,4.7c-.09,2.61,0,5.22-.17,7.83-.07,1,.19,1.12,1.14,1,.58-.06.6-.48.72-.87a10.63,10.63,0,0,1,6.14-7.3,9.56,9.56,0,0,1,12.38,4.32A10.33,10.33,0,0,1,103,34.06c0,.76.21,1,1,1.1a8.6,8.6,0,0,0,2.52-.11A2,2,0,0,1,104.68,33.3ZM70.17,19.22c.55.05.92-.11,1-.73a1.65,1.65,0,0,1,1.56-1.55c.21-.05.56,0,.55-.31a.84.84,0,0,0-.46-.72c-.57-.3-1.15-.6-1.74-.87a46.81,46.81,0,0,0-14.78-4c-.94-.09-1.89-.15-2.83-.21-.46,0-.68,0-.47.57.8,2.13,1.58,4.28,2.34,6.43a1,1,0,0,0,1,.66c2.9.16,5.79.36,8.69.49,1.42.06,2.84.2,4.26.2h0A8.81,8.81,0,0,1,70.17,19.22ZM51.63,17.31c-.45-1.9-.94-3.8-1.33-5.71-.14-.67-.43-.86-1.08-.86a60.52,60.52,0,0,0-11.39,1.15c-1.13.23-2.25.52-3.39.75-.48.09-.63.3-.52.79.22,1,.39,2,.58,3.06a.84.84,0,0,0,.91.76c4.7.31,9.39.78,14.11.92.44,0,.88.1,1.19.13C51.82,18.33,51.86,18.28,51.63,17.31ZM38.55,35.54c0,.73.21,1,1,1q21,0,42,0c.64,0,1-.13,1-.88s-.36-.87-1-.87c-4.09,0-8.18-.17-12.28-.18q-9.51,0-19-.22l-5.69-.11a4.88,4.88,0,0,1-3.77-1.72c-1-1.13-1.93-2.3-2.9-3.45A15.13,15.13,0,0,1,38.55,35.54ZM30.6,19.69a.89.89,0,0,0-.86-.36c-3.37,0-6.75-.18-10.12.13a1.66,1.66,0,0,0-.95.43,28.45,28.45,0,0,1-3.56,2.5.67.67,0,0,0-.39.79c.08.38.14.76.23,1.13.46,1.94.05,1.75,2.45,2,.7.08,1.42.1,2.12.16a3.36,3.36,0,0,0,2.76-.79c3.84-3.26,8.29-3.29,12.58-.22C33.5,23.5,31.89,21.71,30.6,19.69Zm48,.84c-5.16-.19-10.31-.44-15.46-.67-2.51-.11-5-.25-7.54-.39-.61,0-.82.12-.72.81.33,2.44.31,2.48,2.77,2.48,5.16,0,10.3.44,15.46.59,2.18.06,4.37.29,6.55.47,1.07.09,1.17,0,1.16-1.08C80.83,20.55,80.83,20.61,78.63,20.53Zm-22,11.23c-1.17,0-1.68.76-1.25,1.89.18.46.58.33.91.34,2.31.06,4.63.09,6.94.14,5.43.1,10.86,0,16.29.22.49,0,1,.1,1.09-.67.15-1.15.15-1.18-1-1.21-5.22-.12-10.44-.18-15.65-.41a68.56,68.56,0,0,1-7-.3Zm-44.9,1c-.5,0-1-.13-1.5-.17-.25,0-.66-.32-.7.17s.3.77.65.74a4.61,4.61,0,0,1,3.5,1.41c.65.53,1.6.4,2.41.49,1.79.21,1.82.17,2-1.61a12.88,12.88,0,0,1,1.16-4.18c.21-.44.27-.67-.37-.7-3.23-.14-6.46-.26-9.67-.63-.48-.06-.58.16-.51.56.17.94.34,1.87.5,2.8,0,.24.16.41.41.37s.19-.29.15-.47c-.1-.42.08-.57.47-.51A3,3,0,0,1,12,31.7a3.55,3.55,0,0,0,2.78.88c.65,0,1.34-.15,1.93.3A28.37,28.37,0,0,1,11.68,32.76Zm33.17,1.09c3,0,6,.07,9.06.15.73,0,1-.23,1-1s.15-1.29-.9-1.33c-3.14-.12-6.27-.33-9.4-.48-1.36-.07-2.72-.11-4.07-.31A.49.49,0,0,0,40,31,5.37,5.37,0,0,0,44.85,33.85Zm-17.21-15a16.21,16.21,0,0,1,2.21.09,1.14,1.14,0,0,0,1.23-.64c.27-.4.17-.54-.3-.62-1.11-.21-2.21-.46-3.29-.75a6.44,6.44,0,0,1-2.78-1.52c-.22-.21-.42-.39-.78-.26a63.84,63.84,0,0,0-8.41,3.76C19.59,19.12,23.61,18.71,27.64,18.86ZM16.33,26.62a1.52,1.52,0,0,1-1.61-1.45c0-.17-.09-.34-.12-.52-.34-1.84-.34-1.81-2.26-1.8a.89.89,0,0,0-1,.83,12.37,12.37,0,0,1-.48,1.71A2.07,2.07,0,0,1,9.59,26.8a.9.9,0,0,0-.65.86c.06.41.54.25.84.27,2.81.19,5.62.32,8.42.57A2.16,2.16,0,0,0,20.78,27C19.27,26.86,17.8,26.73,16.33,26.62Zm87,8.91c-.78-.07-.73-.54-.7-1.05A10.5,10.5,0,0,0,100.91,28c-1.91-2.88-4.53-4.62-8.09-4.48-4.2.17-7.1,2.37-8.84,6.14a12.22,12.22,0,0,0-1,3.95c0,.37-.13.73.43.77s.65-.23.67-.7a11.7,11.7,0,0,1,1.67-5.38c3.72-6.36,11.33-4.77,14.39-.7a10.71,10.71,0,0,1,1.9,7.58c0,.23-.05.47-.08.7-.07.62.2.85.82.83a22.36,22.36,0,0,0,6.59-1.25A37.07,37.07,0,0,1,103.32,35.53ZM50.69,11.6c.48,1.92,1,3.84,1.38,5.77a1.12,1.12,0,0,0,1.17,1c2.07.21,2,.2,1.26-1.61s-1.27-3.44-1.87-5.17c-.21-.6-.47-1-1.16-.83C50.71,10.63,50.52,10.93,50.69,11.6ZM23.08,26.22a9,9,0,0,1,10.85-.1A8.28,8.28,0,0,1,37.32,32a25.81,25.81,0,0,1,.17,3.73c0,.27-.13.69.28.72s.34-.4.35-.67c.1-2.5.09-5-1.26-7.24-3.25-5.45-10.55-6.54-14.8-2C22.48,26.74,22.78,26.46,23.08,26.22Zm-8.35-7.6a1,1,0,0,0,.75-.19,79.12,79.12,0,0,1,8.71-3.8c.24-.09.69-.05.54-.5s-.49-.32-.82-.2c-1.12.4-2.24.78-3.36,1.16a3.49,3.49,0,0,1-2.31.37.64.64,0,0,0-.35.06,60.36,60.36,0,0,1-6.61,2.13C12.59,18,13.66,18.33,14.73,18.62Zm48.92-8c2.11.76,4.25,1.46,6.34,2.29a132.64,132.64,0,0,1,11.92,6,7.2,7.2,0,0,0,3.16.78C78.26,15.81,71.37,12.21,63.65,10.58ZM34.06,16.35q-.33-1.38-.54-2.79c-.08-.47-.26-.62-.71-.48l-6.05,1.8c-.14,0-.35.1-.28.28a.79.79,0,0,0,.37.35,12.2,12.2,0,0,0,4.56,1.38c.68.08,1.36.09,2,.14S34.21,17,34.06,16.35Zm-12.9,11a11.76,11.76,0,0,0-2.72,7.78c0,.36.09.67.53.65s.43-.41.42-.72a14.47,14.47,0,0,1,.52-3.77,9.69,9.69,0,0,1,2.21-4.18A.73.73,0,0,0,21.16,27.31Zm87.53,3.08a1.74,1.74,0,0,1-1.93,1.21,14.23,14.23,0,0,0-1.6,0c-.15,0-.33,0-.3.22a.36.36,0,0,0,.25.21,20,20,0,0,0,4.7,0c.22,0,.42-.16.36-.41-.33-1.35.15-2.7-.08-4.1C109.62,28.51,109.11,29.43,108.69,30.39Zm-10.6-8.32c2.52,1.61,5,3.47,8.17,3.43A24,24,0,0,0,98.09,22.07ZM72.48,17.42a1,1,0,0,0-.89,1.15c.06.54.63.42,1,.44a14.24,14.24,0,0,0,1.6,0,7.32,7.32,0,0,0,1.49.1C75.08,17.5,74,17,72.48,17.42Zm-43.63-.57a11.1,11.1,0,0,1-2.45-1.19c-.22-.17-.56-.32-.5-.67s.42-.35.7-.44a98.87,98.87,0,0,1,11.82-3.24,71.64,71.64,0,0,0-13.68,3.58A7.28,7.28,0,0,0,28.85,16.85Zm77.08,15.68c-.33,0-.88-.25-.89.37,0,.43.08,1,.7,1.06,1.05,0,2.2.45,2.94-.77.22-.36.68-.44,1.28-.71A18.88,18.88,0,0,1,105.93,32.53ZM39.32,9.87a65.82,65.82,0,0,0-18.44,4.64A97.48,97.48,0,0,1,39.32,9.87Zm-7,7.55c7.19,1,14.45,1,21.67,1.51C46.76,18.5,39.54,18.07,32.32,17.42ZM14.25,18.9l-2-.53-2.24-.53c.81,1.34.39,2.5-.05,3.75C10.51,19.14,12.38,19.11,14.25,18.9Zm61.58.69c-1.35-.2-2.72,0-4.18-.3a.87.87,0,0,0,.87.6c2.39.08,4.79.14,7.19.2.07,0,.14-.06.38-.17C78.58,19.5,77.18,19.79,75.83,19.59ZM15.45,21.2a.53.53,0,0,1-.38-.62c0-.31.31-.3.55-.31.44,0,.88,0,1.32,0a1.81,1.81,0,0,0,1.55-.87,16.6,16.6,0,0,0-3.49.06c-.83.18-.13,1-.07,1.47,0,.3,0,1,.69.7a2.08,2.08,0,0,0,.41-.31C15.77,21.27,15.61,21.25,15.45,21.2Zm44.29-10a44.84,44.84,0,0,1,6.83,1.7c-1.9-1.31-9.95-2.7-13.76-2.41A42.29,42.29,0,0,1,59.74,11.15Zm-4.61,7.78v.14l15.73.75,0-.12ZM81.66,34.36c.91.06.87-.58,1-1.15s-.17-.74-.71-.73c-.73,0-.94.24-1,1.19C80.88,34.16,81.13,34.32,81.66,34.36Z" style="fill:#fff"/><path d="M21.81,32.58a6.82,6.82,0,1,1,6.33,7A6.75,6.75,0,0,1,21.81,32.58Zm.63.26a6.19,6.19,0,1,0,6.21-6.16A6,6,0,0,0,22.44,32.84Z" style="fill:#fff"/><path d="M86.51,32.84a6.78,6.78,0,0,1,13.55,0c0,3.4-3,7-6.76,6.71C89.54,39.79,86.51,36.25,86.51,32.84Zm6.74-6.12a6.13,6.13,0,1,0,6.17,6.11A6.05,6.05,0,0,0,93.25,26.72Z" style="fill:#fff"/><path d="M28.42,15.75a.64.64,0,0,1-.5-.65c0-.35.28-.5.58-.59l2.8-.83c1.05-.3,1.32-.15,1.56.89a6.35,6.35,0,0,1,.16,1c.06.71-.27,1.06-1,1A17.86,17.86,0,0,1,28.42,15.75Zm4.19-.31c-.06-1.39-.33-1.6-1.65-1.23l-2.3.65c-.15,0-.29.09-.3.27s.14.26.28.29c1.05.29,2.11.56,3.16.83C32.37,16.25,32.64,16,32.61,15.44Z" style="fill:#fff"/></g></svg>