<svg xmlns="http://www.w3.org/2000/svg" viewBox="0 0 1366 768"><title>ysdn3006-p1-visualcomp-webflow [Recovered]</title><g id="Traffic"><path d="M647.2,701.94c.35,1.59,2,2.58,3.47,3.21a5.23,5.23,0,0,0,2.68.47,12.61,12.61,0,0,1,.21-4.9,6.54,6.54,0,0,1,3.09-3.46c2.88-1.46,6.64.08,8.08,2.81.88,1.67.77,3.49.81,5.31l29.91-.74,4.26-.11c-.1-3.22.08-6.83,3.28-8.6a6.49,6.49,0,0,1,8.8,2.57c.89,1.65.65,3.73.69,5.52a16.47,16.47,0,0,0,5.13-.85c.49-.18,2.21-.65,1.59-1.33-.25-.27-1-.09-1.19-.34-.29-.41.42-.77.69-.9.44-.22.74-.2.71-.76,0-.34-.18-.77-.19-1.17,0-.81.38-1.78,0-2.53-.59-1.35-3.54-1.91-4.8-2.24-1.85-.48-3.63-1.16-5.48-1.62a35.94,35.94,0,0,0-5.27-.74,12.46,12.46,0,0,1-2.59-.29,2.43,2.43,0,0,1,.48.34.2.2,0,0,1,0,.16c0,.09,0,.17,0,.21a2.12,2.12,0,0,1-.44,0h-.6c-.32,0-.65,0-1,0l-.7,0a1.54,1.54,0,0,1-.37,0,4.78,4.78,0,0,1-.87-.38l-1.22-.64-1.68-.86-1.7-.87c-.64-.32-1.27-.69-1.93-1-1.35-.58-2.71-1.14-4.1-1.64-.59-.22-1.21-.36-1.81-.55s-1.48-.39-2.23-.55l-.34-.08a7.91,7.91,0,0,1,.54-.75,72.65,72.65,0,0,0-11,0,35.74,35.74,0,0,0-9.88,1.8q-2.92,1-5.82,2.06c-1.63.6-3.16,1.39-4.81,2-.75.27-1.53.49-2.29.76s-2,.09-1.87,1a5.47,5.47,0,0,1,.22,1.39c0,.36-.4.81-.4,1.15,0,.18.21.44.23.52a1.88,1.88,0,0,1,0,.53,5.38,5.38,0,0,1-.18,1.32,12.14,12.14,0,0,0-.77,2.32A10.8,10.8,0,0,0,647.2,701.94Zm29.22-15.81h.41a32,32,0,0,1,4.15.24c.65.07,1.29.15,1.93.26a20.37,20.37,0,0,1,2.05.49c.61.16,1.21.38,1.81.58s1.11.36,1.66.57,1.25.44,1.84.73,1.36.65,2,1,1.11.58,1.63.91,1.15.76,1.71,1.16h-.48l-.83,0a.89.89,0,0,1-.58-.09c-.28-.22-.52-.49-.79-.72l-.6-.49a1.4,1.4,0,0,0-.59-.38c-.21,0-.37,0-.57-.06a1.83,1.83,0,0,0-.66,0,1.27,1.27,0,0,0-.86,1c0,.25.13.69-.23.7-.59,0-1.2,0-1.8,0l-6.73-.1-2.25,0c-.07,0-.24,0-.29,0a.78.78,0,0,1-.07-.23l-.16-.48Zm-13,3.53c-.08-.52-.16-1-.22-1.57,0-.08,0-.23,0-.28s.17,0,.22-.06l.26-.06.6-.14c1.11-.26,2.22-.53,3.34-.74s2.16-.3,3.29-.46c.51-.07,1.13-.1,1.65-.12l1.73-.05h.56s.06.31.08.38l.42,2,.73,3.39-.79,0c-1.2,0-2.4-.09-3.61-.15l-3.16-.18-2.9-.16-1.18,0-.51,0a1,1,0,0,1-.25,0c-.07,0-.07-.38-.09-.47Zm-6.1.11c.34-.17.68-.36,1-.51s.79-.28,1.18-.41c.75-.26,1.51-.46,2.27-.68.35-.1.71-.17,1.08-.25l.49,3.39a11.42,11.42,0,0,1-1.17,0c-.48,0-1-.1-1.46-.18a11.86,11.86,0,0,1-1.18-.27,9.84,9.84,0,0,1-1.14-.43,6.63,6.63,0,0,1-.6-.29A4.78,4.78,0,0,1,657.29,689.77Z" style="fill:#fff"/><circle cx="706.23" cy="701.37" r="4.28" style="fill:#fff"/><circle cx="659.29" cy="703.05" r="4.28" style="fill:#fff"/></g><g id="Chart_1" data-name="Chart 1"><g id="Background-2" data-name="Background"><rect width="1366" height="768" style="fill:#1e1e1e"/></g></g></svg>