<svg id="Landing" xmlns="http://www.w3.org/2000/svg" viewBox="0 0 268.2 68.79"><title>ysdn3006-p1-visualcomp-webflow [Recovered]</title><path d="M37.72,36.56a50.61,50.61,0,0,0-6.83-3.92c-.63-.31-1-.48-1.14-.53-3-1.47-5.43-2.71-7.14-3.72a17.43,17.43,0,0,1-4.32-3.49,6.56,6.56,0,0,1-1.74-4.47,6.36,6.36,0,0,1,1.82-4.57Q20.18,14,24.13,14a15.17,15.17,0,0,1,3.93.45,4.1,4.1,0,0,1,2.09,1l1.91,8.41h8.48L41,9.18c-.54,0-1.56-.09-3-.27q-3.68-.4-7-.65T23.19,8a29.8,29.8,0,0,0-12.5,2.29,16.09,16.09,0,0,0-7.19,6,15.15,15.15,0,0,0-2.26,8.06q0,12.34,14.65,19c3.17,1.46,5.66,2.72,7.46,3.75a15.35,15.35,0,0,1,4.18,3.34,6.76,6.76,0,0,1-.59,9.09q-2.07,1.79-6.37,1.78a16,16,0,0,1-5.13-.7A5.58,5.58,0,0,1,12.68,59l-2.22-10H1.79L1.12,64.07a27.77,27.77,0,0,1,3.79.86q4.22,1.17,8.15,1.89a47.28,47.28,0,0,0,8.53.72q9.06,0,14.3-2.73t7.22-6.74a18.72,18.72,0,0,0,2-8.42A13.72,13.72,0,0,0,42.94,42,19.5,19.5,0,0,0,37.72,36.56Z" style="fill:none;stroke:#4d4d4d;stroke-linecap:round;stroke-miterlimit:10"/><path d="M76,55.53a9.65,9.65,0,0,1-.56-.89Q73.29,50.8,73.3,43.53A38.07,38.07,0,0,1,74.06,35a8.69,8.69,0,0,1,2-4.28,4.45,4.45,0,0,1,3.13-1.18,4.15,4.15,0,0,1,1.87.4,1.92,1.92,0,0,1,1.06,1.28l2.23,9.1h9.49l.66-15A8,8,0,0,1,93,25.09c-.58-.14-1.17-.29-1.8-.47Q88.5,23.87,86,23.44A36.43,36.43,0,0,0,80,23a25.92,25.92,0,0,0-12,2.69,20,20,0,0,0-8.26,7.8,23.42,23.42,0,0,0-3,12.13,28.45,28.45,0,0,0,1.64,9.9" style="fill:none;stroke:#4d4d4d;stroke-linecap:round;stroke-miterlimit:10"/><path d="M127.71,55.53V39.39a8.16,8.16,0,0,1,2.89-1.31,16.07,16.07,0,0,1,4.3-.54,11.61,11.61,0,0,1,4.39.7,13.24,13.24,0,0,1,3.18,1.94V23.71a4.23,4.23,0,0,0-1.38-.5A10.16,10.16,0,0,0,139,23a12.2,12.2,0,0,0-6.41,1.78,17,17,0,0,0-4.9,4.33,12.87,12.87,0,0,0-2.44,4.79h-.32l.28-6.84V24.89l-2.58-1.84h-.2L108,25v7.19l4.26,1.53V55.53" style="fill:none;stroke:#4d4d4d;stroke-linecap:round;stroke-miterlimit:10"/><path d="M197.42,55.53a26.93,26.93,0,0,0,2-10.76,23.8,23.8,0,0,0-2.79-12,17.93,17.93,0,0,0-7.78-7.33A25.86,25.86,0,0,0,177.27,23a27.43,27.43,0,0,0-11.84,2.49,19.28,19.28,0,0,0-8.37,7.59A23.92,23.92,0,0,0,154,45.78a25.55,25.55,0,0,0,1.74,9.75" style="fill:none;stroke:#4d4d4d;stroke-linecap:round;stroke-miterlimit:10"/><path d="M171.46,55.53c-.09-.37-.17-.76-.24-1.16a55.31,55.31,0,0,1-.67-9.63q0-8.16,1.51-11.88t4.51-3.72a4.38,4.38,0,0,1,3.61,1.7,11.57,11.57,0,0,1,1.93,5.31,63.27,63.27,0,0,1,.59,9.66,48.78,48.78,0,0,1-.77,9.72" style="fill:none;stroke:#4d4d4d;stroke-linecap:round;stroke-miterlimit:10"/><polyline points="231.32 55.53 231.32 3.83 228.67 1.88 228.43 1.88 210.78 3.95 210.78 9.5 215.97 10.67 215.97 55.53" style="fill:none;stroke:#4d4d4d;stroke-linecap:round;stroke-miterlimit:10"/><polyline points="267.25 55.53 267.25 3.83 264.6 1.88 264.36 1.88 246.71 3.95 246.71 9.5 251.9 10.67 251.9 55.53" style="fill:none;stroke:#4d4d4d;stroke-linecap:round;stroke-miterlimit:10"/></svg>